<svg xmlns="http://www.w3.org/2000/svg" width="56.863" height="56.867" viewBox="0 0 56.863 56.867" class="svg replaced-svg">
  <g id="Nitrofill" transform="translate(-16.1 495.949)">
    <path id="Path_41830" data-name="Path 41830" d="M63.756-495.777a7.724,7.724,0,0,0-5.108,3.994,7.39,7.39,0,0,0,0,6.827,7.8,7.8,0,0,0,3.093,3.224l.806.415v2.347a10.427,10.427,0,0,0,.166,2.738,2.186,2.186,0,0,0,1.351,1.09l.379.083-.024,16.45c-.036,16.4-.036,16.45-.284,16.77a1.673,1.673,0,0,1-1.588.818,1.673,1.673,0,0,1-1.588-.818c-.225-.284-.261-.557-.32-2.418-.071-2.2-.166-2.643-.747-3.639a6.42,6.42,0,0,0-2.264-2.027,2.836,2.836,0,0,1-.652-.356c0-.024.225-.486.486-1.031a22.7,22.7,0,0,0,2.11-7.336,21.99,21.99,0,0,0-5.416-16.747,21.968,21.968,0,0,0-18.489-7.159,21.768,21.768,0,0,0-15.8,9.458,21.693,21.693,0,0,0,0,24.439,21.8,21.8,0,0,0,23.455,8.889,21.886,21.886,0,0,0,11.721-7.68c.841-1.055.877-1.079,1.233-.984a3.836,3.836,0,0,1,1.683,1.1c.676.889.723,1.079.794,3.342.071,1.991.095,2.169.391,2.738a3.38,3.38,0,0,0,1.647,1.719,2.694,2.694,0,0,0,1.754.4,2.694,2.694,0,0,0,1.754-.4,3.45,3.45,0,0,0,1.659-1.719l.32-.6.036-16.6.024-16.616.415-.071a1.977,1.977,0,0,0,1.387-1.327l.142-.521h1.849v.652c0,.794.344,1.244.948,1.244a.924.924,0,0,0,.652-.3c.3-.284.3-.308.3-2.548s0-2.264-.3-2.548a.871.871,0,0,0-1.3,0c-.249.237-.3.4-.3.948v.652h-1.9v-2.43l.794-.415a8.907,8.907,0,0,0,2.856-2.75,7.5,7.5,0,0,0-1.173-9.233A7.526,7.526,0,0,0,63.756-495.777Zm3,1.9A5.749,5.749,0,0,1,71-489.128a5.7,5.7,0,0,1-4.243,6.27,5.723,5.723,0,0,1-6.874-4.148A5.708,5.708,0,0,1,66.755-493.881ZM36.947-480.133c0,.794.344,1.244.948,1.244a.924.924,0,0,0,.652-.3c.249-.237.3-.4.3-.948v-.664l.628.071a19.931,19.931,0,0,1,11.07,4.492l.735.6-.391.415a2.243,2.243,0,0,0-.486.687.971.971,0,0,0,1.15,1.15,2.243,2.243,0,0,0,.687-.486l.415-.391.6.735a20.074,20.074,0,0,1,4.492,11.07l.071.628h-.664c-.545,0-.711.047-.948.3a.871.871,0,0,0,0,1.3c.237.249.4.3.948.3.356,0,.652.047.652.107s-.083.723-.178,1.47a19.88,19.88,0,0,1-4.373,10.121l-.593.723-.51-.462a1.8,1.8,0,0,0-.735-.462,1.082,1.082,0,0,0-1.079,1.079,1.825,1.825,0,0,0,.474.747l.474.51-.759.6a19.881,19.881,0,0,1-10.11,4.35c-.747.095-1.4.178-1.47.178s-.107-.3-.107-.652c0-.794-.344-1.244-.948-1.244s-.948.45-.948,1.244c0,.439-.047.652-.142.652a31.173,31.173,0,0,1-3.876-.64,20.228,20.228,0,0,1-7.7-3.923l-.711-.581.474-.51c.557-.6.616-1.078.166-1.517s-.913-.391-1.529.178l-.51.474-.593-.747a19.936,19.936,0,0,1-4.361-10.121c-.095-.747-.178-1.4-.178-1.47s.3-.107.652-.107c.794,0,1.244-.344,1.244-.948s-.45-.948-1.244-.948c-.356,0-.652-.047-.652-.107s.083-.723.178-1.47a19.885,19.885,0,0,1,4.326-10.086l.64-.782.427.415a2.083,2.083,0,0,0,.794.486c.32.059.439.012.759-.3s.356-.439.3-.759a2.175,2.175,0,0,0-.486-.794l-.4-.415.747-.616a20.027,20.027,0,0,1,10-4.362C37.078-480.856,36.947-480.891,36.947-480.133Zm29.393,1.244v1.9h-1.9v-3.793h1.9Z" fill="#fff"/>
    <path id="Path_41831" data-name="Path 41831" d="M424.979-455.816a16.992,16.992,0,0,0-1.8,1.387.967.967,0,0,0,.794,1.458c.474,0,.652-.19,2-2.11,1.031-1.47,1.221-1.932.818-1.92A16.631,16.631,0,0,0,424.979-455.816Z" transform="translate(-358.698 -34.331)" fill="#fff"/>
    <path id="Path_41832" data-name="Path 41832" d="M85.745-327.833a16.052,16.052,0,0,0-6.7,2.441,15.848,15.848,0,0,0-5.179,5.831,15.169,15.169,0,0,0,2.513,17.2,14.819,14.819,0,0,0,10.311,4.741,14.747,14.747,0,0,0,11.39-4.444,14.1,14.1,0,0,0,3.721-6.009,15.118,15.118,0,0,0-9.695-19.07A16.338,16.338,0,0,0,85.745-327.833Zm3.378,1.932a13.362,13.362,0,0,1,7.644,3.793,13.24,13.24,0,0,1,.51,18.216,14.055,14.055,0,0,1-5.736,3.745,13.349,13.349,0,0,1-12.433-2.264,13.291,13.291,0,0,1-2.264-18.37A13.377,13.377,0,0,1,89.123-325.9Z" transform="translate(-49.509 -148.128)" fill="#fff"/>
    <path id="Path_41833" data-name="Path 41833" d="M114.159-295.584a11.67,11.67,0,0,0-9.387,8.533,8.047,8.047,0,0,0-.273,2.773,7.988,7.988,0,0,0,.332,2.963,15.564,15.564,0,0,0,.806,2.062,11.316,11.316,0,0,0,9.588,6.317,10.172,10.172,0,0,0,4.267-.593,11.457,11.457,0,0,0,4.053-2.441,11.552,11.552,0,0,0,3.247-5.286,7.639,7.639,0,0,0,.332-2.963,7.693,7.693,0,0,0-.32-3.022,11.388,11.388,0,0,0-3.176-5.274,11.16,11.16,0,0,0-4.847-2.738,8.5,8.5,0,0,0-2.667-.344C115.2-295.62,114.325-295.608,114.159-295.584Zm2.572,4.018a12.119,12.119,0,0,0,.166,2.394,2.214,2.214,0,0,0,1.564.687,13.9,13.9,0,0,0,1.8-1.612l1.541-1.529.687.687.676.676-1.529,1.529a12.089,12.089,0,0,0-1.612,1.813,2.22,2.22,0,0,0,.687,1.564,12.119,12.119,0,0,0,2.394.166l2.133.024v1.778l-2.133.024a12.118,12.118,0,0,0-2.394.166,2.214,2.214,0,0,0-.687,1.564,13.9,13.9,0,0,0,1.612,1.8l1.529,1.541-.687.687-.676.676-1.529-1.529a12.084,12.084,0,0,0-1.813-1.612,2.22,2.22,0,0,0-1.564.687,12.119,12.119,0,0,0-.166,2.394l-.024,2.133-.64.036c-1.268.071-1.2.213-1.2-2.264a7.167,7.167,0,0,0-.166-2.359,2.3,2.3,0,0,0-1.529-.628,12.084,12.084,0,0,0-1.813,1.612l-1.529,1.529-.676-.676-.687-.687L110-279.833a13.9,13.9,0,0,0,1.612-1.8,2.214,2.214,0,0,0-.687-1.564,12.118,12.118,0,0,0-2.394-.166l-2.133-.024v-1.778l2.133-.024a12.119,12.119,0,0,0,2.394-.166,2.22,2.22,0,0,0,.687-1.564A12.089,12.089,0,0,0,110-288.734l-1.529-1.529.676-.676.687-.687,1.541,1.529a13.9,13.9,0,0,0,1.8,1.612,2.04,2.04,0,0,0,1.564-.723,11.429,11.429,0,0,0,.13-2.347,14.608,14.608,0,0,1,.083-2.133,3.175,3.175,0,0,1,.924-.047l.83.036Zm-3.757-.628v1.09l-.77-.758c-.427-.415-.723-.794-.676-.841a6.349,6.349,0,0,1,1.363-.569A3.411,3.411,0,0,1,112.974-292.195Zm6.447-.841a2.62,2.62,0,0,1,.711.332,3.058,3.058,0,0,1-.7.841l-.77.758v-1.09a4.843,4.843,0,0,1,.059-1.09A7.017,7.017,0,0,1,119.421-293.036Zm-11.188,5.144.759.77H107.9c-1.09,0-1.1,0-1.031-.273a7.926,7.926,0,0,1,.557-1.268A9.226,9.226,0,0,1,108.233-287.892Zm16.344.012a7.021,7.021,0,0,1,.249.7,4.841,4.841,0,0,1-1.09.059h-1.09l.759-.77a3.057,3.057,0,0,1,.841-.7A2.62,2.62,0,0,1,124.577-287.881Zm-16.344,7.218a3.059,3.059,0,0,1-.841.7,6.89,6.89,0,0,1-.581-1.41,4.841,4.841,0,0,1,1.09-.059h1.09Zm16.521-.51a8.564,8.564,0,0,1-.545,1.28,9.227,9.227,0,0,1-.806-.77l-.759-.77h1.09C124.826-281.433,124.838-281.433,124.755-281.172Zm-11.781,4.847c0,1.209.071,1.173-1.055.687l-.533-.237.759-.759c.427-.427.782-.77.794-.77A7.477,7.477,0,0,1,112.974-276.325Zm7.159.474a6.891,6.891,0,0,1-1.41.581,4.843,4.843,0,0,1-.059-1.09v-1.09l.77.758A3.058,3.058,0,0,1,120.133-275.851Z" transform="translate(-77.923 -176.596)" fill="#fff"/>
    <path id="Path_41834" data-name="Path 41834" d="M177.881-223.83a3.779,3.779,0,0,0-1.754,1.813,2.6,2.6,0,0,0,.747,2.833,2.624,2.624,0,0,0,4.006-.059,2.61,2.61,0,0,0-.095-3.852A2.687,2.687,0,0,0,177.881-223.83Zm1.6,2.039a.936.936,0,0,1-.652,1.6.924.924,0,0,1-.652-.3.924.924,0,0,1-.3-.652.924.924,0,0,1,.3-.652.924.924,0,0,1,.652-.3A.924.924,0,0,1,179.481-221.792Z" transform="translate(-140.933 -239.734)" fill="#fff"/>
  </g>
</svg>