<svg xmlns="http://www.w3.org/2000/svg" width="54.48" height="58.5" viewBox="0 0 54.48 58.5" class="svg replaced-svg">
  <g id="CNG_Default" transform="translate(-42.75 512.138)">
    <path id="Path_44322" data-name="Path 44322" d="M51.613-511.776a4.961,4.961,0,0,0-3.74,4.091c-.068.408-.113,9.973-.113,22.44v21.738H47.4a5.06,5.06,0,0,0-3.831,2.493c-.5.986-.567,1.405-.567,3.933v2.414l.329.363.329.374,20.786.034c14.28.023,20.9,0,21.182-.091.782-.215.839-.431.839-3.06,0-2.539-.079-3.037-.635-4.035a5.123,5.123,0,0,0-3.547-2.391l-.635-.068v-9.713h.544a2.057,2.057,0,0,1,1.609.533c.2.261.227.453.227,1.677,0,2.255.238,3.105,1.133,3.989.759.771,2.419,1,3.62,1a2.629,2.629,0,0,0,1.587-.306,4.069,4.069,0,0,0,1.655-1.677l.272-.51.034-17.612c.008-6.1,0-8.607,0-8.607v-3.526H89.97s0,5.193,0,8.138v10.408c0,11.4.034,10.823-.691,11.209a3.106,3.106,0,0,1-2.464-.306c-.283-.329-.295-.408-.295-1.734,0-2.221-.238-3.049-1.156-4a3.508,3.508,0,0,0-2.663-1.031l-1.054-.045V-491.5c0-10.132-.045-16.06-.113-16.445a4.892,4.892,0,0,0-3.853-3.842C76.932-511.923,52.35-511.923,51.613-511.776Zm25.738,2.38a2.431,2.431,0,0,1,1.791,1.813c.091.442.113,6.721.1,22.316l-.034,21.7-14.484.034-14.473.023.023-22.2.034-22.2.34-.487a2.45,2.45,0,0,1,1.451-1.009C52.713-509.555,76.672-509.543,77.352-509.4ZM82.361-461a2.526,2.526,0,0,1,1.451,1.292,4.494,4.494,0,0,1,.215,1.949v1.507H45.38V-457.7a4.216,4.216,0,0,1,.238-1.949,1.91,1.91,0,0,1,1.179-1.2l.567-.272H64.647C76.366-461.127,82.066-461.093,82.361-461Z" transform="translate(0 0)" fill="#fff"/>
    <path id="Path_44322_-_Outline" data-name="Path 44322 - Outline" d="M65.025-512.138c1.241,0,12.14,0,12.7.1a5.063,5.063,0,0,1,2.645,1.408,5.04,5.04,0,0,1,1.409,2.634c.106.6.118,11.733.118,16.491v15.6l.815.035a3.749,3.749,0,0,1,2.832,1.107c.963,1,1.226,1.9,1.226,4.174,0,1.3.013,1.315.234,1.571a2.485,2.485,0,0,0,1.468.347,1.753,1.753,0,0,0,.693-.1l.1-.051c.217-.107.317-.156.382-1.223.074-1.2.073-3.558.073-8.248v-11.872c0-2.912,0-8.086,0-8.138v-.25h2.858v3.776c0,.024.008,2.575,0,8.607l-.034,17.675-.3.565a4.327,4.327,0,0,1-1.761,1.782,2.854,2.854,0,0,1-1.7.334c-.643,0-2.818-.077-3.8-1.072-.946-.934-1.205-1.829-1.205-4.165,0-1.205-.026-1.335-.174-1.523A1.85,1.85,0,0,0,82.191-473H81.9v9.238l.411.044a5.336,5.336,0,0,1,3.739,2.518c.579,1.041.667,1.584.667,4.157,0,2.59-.028,3.027-1.022,3.3h0c-.206.055-1.458.108-12.4.108-2.487,0-5.38,0-8.845-.008l-20.9-.034-.4-.459-.391-.431v-2.51c0-2.55.067-3,.594-4.046a5.34,5.34,0,0,1,4.052-2.63h.115v-21.488c0-10.8.036-21.916.116-22.476h0a5.3,5.3,0,0,1,1.342-2.787,4.841,4.841,0,0,1,2.6-1.515C52.132-512.135,63.707-512.138,65.025-512.138Zm23.447,43.976a2.848,2.848,0,0,1-1.849-.522c-.342-.4-.353-.557-.353-1.895,0-2.171-.213-2.922-1.086-3.827a3.266,3.266,0,0,0-2.495-.955l-1.293-.056V-491.5c0-11.636-.059-16.108-.11-16.4a4.54,4.54,0,0,0-1.271-2.37,4.564,4.564,0,0,0-2.383-1.27c-.333-.056-5.636-.1-12.609-.1h0c-7.391,0-13.009.045-13.361.107a4.723,4.723,0,0,0-3.541,3.881v.006c-.064.438-.11,9.859-.11,22.4v21.988H47.4A4.843,4.843,0,0,0,43.79-460.9c-.5.995-.54,1.448-.54,3.82v2.318l.264.291.257.292,20.673.034c3.464.005,6.357.008,8.844.008,2.916,0,11.777,0,12.272-.09.58-.16.654-.181.654-2.819,0-2.486-.073-2.962-.6-3.913a4.864,4.864,0,0,0-3.355-2.264l-.859-.092V-473.5h.794a2.271,2.271,0,0,1,1.8.626c.261.333.281.582.281,1.834,0,2.2.218,2.981,1.059,3.811a5.406,5.406,0,0,0,3.444.925,2.377,2.377,0,0,0,1.469-.276,3.812,3.812,0,0,0,1.551-1.573l.244-.457.034-17.55c.008-6.03,0-8.58,0-8.605v-3.276H90.221c0,1.073,0,5.344,0,7.889v11.872c0,4.7,0,7.059-.074,8.279-.076,1.24-.241,1.435-.66,1.641l-.09.046A2.231,2.231,0,0,1,88.473-468.161Zm-24.481-41.6c4.773,0,12.968.026,13.413.122a2.666,2.666,0,0,1,1.983,2.009c.093.452.119,5.887.107,22.364l-.034,21.953-14.733.035L50-463.256l.023-22.453.034-22.281.385-.552a2.715,2.715,0,0,1,1.6-1.109C52.485-509.757,62.074-509.762,63.992-509.762Zm14.969,45.949.034-21.455c.01-13.4,0-21.805-.1-22.265a2.177,2.177,0,0,0-1.6-1.619c-.354-.063-6.076-.111-13.308-.111-6.631,0-11.494.041-11.836.1a2.188,2.188,0,0,0-1.3.907l-.3.423-.034,22.124L50.5-463.757l14.222-.022Zm-31.654,2.436h17.34c14.293,0,17.45.051,17.778.133h0a2.767,2.767,0,0,1,1.614,1.431,4.683,4.683,0,0,1,.237,2.052V-456H45.13v-1.7a4.452,4.452,0,0,1,.26-2.051,2.158,2.158,0,0,1,1.3-1.327Zm34.988.616c-.523-.1-9.7-.116-17.647-.116H47.42l-.515.247a1.683,1.683,0,0,0-1.059,1.079,3.992,3.992,0,0,0-.216,1.847v1.2H83.777v-1.257a4.28,4.28,0,0,0-.192-1.843A2.29,2.29,0,0,0,82.3-460.76Z" transform="translate(0 0)" fill="#178b49"/>
    <path id="Path_44323" data-name="Path 44323" d="M128.874-468.671l-.374.329v15.572l.374.329.363.329h11.231c8.047,0,11.3-.034,11.469-.125a1.525,1.525,0,0,0,.442-.374c.181-.215.2-.816.2-7.967V-468.3l-.351-.351-.351-.351H129.237Zm21.33,8.115v6.063h-19.38V-466.62H150.2Z" transform="translate(-75.81 -38.027)" fill="#fff"/>
    <path id="Path_44323_-_Outline" data-name="Path 44323 - Outline" d="M129.14-469.25h22.844l.849.849v7.822c0,7.551-.022,7.84-.258,8.123a1.768,1.768,0,0,1-.526.442h0c-.189.091-1.18.151-11.581.151H129.14l-.434-.393-.456-.4v-15.8l.459-.4Zm22.637.5H129.333l-.291.264-.292.257v15.346l.289.254.294.266h11.135c5.358,0,10.887-.013,11.374-.107a1.313,1.313,0,0,0,.338-.292l.009-.011c.134-.159.145-2.037.145-7.806v-7.614Zm-21.2,1.88h19.88v12.627h-19.88Zm19.38.5h-18.88v11.627h18.88Z" transform="translate(-75.81 -38.027)" fill="#178b49"/>
    <path id="Path_44328" data-name="Path 44328" d="M103.8-366.849a10.988,10.988,0,0,0-4.339,1.494,10.444,10.444,0,0,0-2.127,1.742,10.537,10.537,0,0,0-2.74,5.239,13.107,13.107,0,0,0-.033,3.882,11.245,11.245,0,0,0,1.788,4.273,12.53,12.53,0,0,0,2.492,2.492,11.287,11.287,0,0,0,4.045,1.762,8.4,8.4,0,0,0,2.088.144,8.4,8.4,0,0,0,2.088-.144,10.61,10.61,0,0,0,8.3-8.384,12.622,12.622,0,0,0-.007-4.026,11.56,11.56,0,0,0-.907-2.655A10.607,10.607,0,0,0,103.8-366.849Zm3,1.233a9.013,9.013,0,0,1,4.861,2.636,9.167,9.167,0,0,1,2.59,4.756,11.909,11.909,0,0,1,.033,3.6,9.517,9.517,0,0,1-7.2,7.51,11.457,11.457,0,0,1-3.3.163,9.511,9.511,0,0,1-7.8-6.466,7.576,7.576,0,0,1-.431-2.9,7.854,7.854,0,0,1,.45-2.995,9.591,9.591,0,0,1,4.887-5.546,10.545,10.545,0,0,1,3.2-.913A12.452,12.452,0,0,1,106.8-365.616Z" transform="translate(-40.241 -120.031)" fill="#fff"/>
    <path id="Path_44328_-_Outline" data-name="Path 44328 - Outline" d="M104.973-367.115h0a10.717,10.717,0,0,1,5.641,1.61,10.928,10.928,0,0,1,4.009,4.386,11.758,11.758,0,0,1,.924,2.7,12.792,12.792,0,0,1,.007,4.108,10.828,10.828,0,0,1-8.453,8.539,8.6,8.6,0,0,1-2.13.148,8.6,8.6,0,0,1-2.129-.148,11.554,11.554,0,0,1-4.12-1.794,12.614,12.614,0,0,1-2.54-2.54,11.478,11.478,0,0,1-1.821-4.352,13.343,13.343,0,0,1,.034-3.961,10.79,10.79,0,0,1,2.792-5.336,10.615,10.615,0,0,1,2.166-1.774,11.177,11.177,0,0,1,4.421-1.522A10.734,10.734,0,0,1,104.973-367.115Zm0,21.094a8.218,8.218,0,0,0,2.047-.139,10.433,10.433,0,0,0,8.144-8.227,12.506,12.506,0,0,0-.006-3.944,11.347,11.347,0,0,0-.89-2.608,10.528,10.528,0,0,0-3.862-4.225,10.317,10.317,0,0,0-5.43-1.55h0a10.34,10.34,0,0,0-1.154.065,10.763,10.763,0,0,0-4.257,1.466,10.237,10.237,0,0,0-2.088,1.71,10.4,10.4,0,0,0-2.689,5.142,12.813,12.813,0,0,0-.032,3.8,11.059,11.059,0,0,0,1.754,4.194,12.343,12.343,0,0,0,2.444,2.445,11.143,11.143,0,0,0,3.973,1.73A8.218,8.218,0,0,0,104.971-346.021Zm-.344-19.974a13.346,13.346,0,0,1,2.211.183,9.171,9.171,0,0,1,4.963,2.691,9.356,9.356,0,0,1,2.643,4.854,12.114,12.114,0,0,1,.033,3.683,9.738,9.738,0,0,1-7.353,7.665,11.551,11.551,0,0,1-2.347.223,8.024,8.024,0,0,1-1.027-.057,9.712,9.712,0,0,1-7.961-6.6,7.777,7.777,0,0,1-.44-2.964,8.084,8.084,0,0,1,.46-3.057,9.565,9.565,0,0,1,1.923-3.327,9.684,9.684,0,0,1,3.068-2.337,10.683,10.683,0,0,1,3.267-.932A5.307,5.307,0,0,1,104.628-365.995Zm.15,18.9a11.127,11.127,0,0,0,2.256-.213,9.342,9.342,0,0,0,7.052-7.355,11.8,11.8,0,0,0-.032-3.52,8.977,8.977,0,0,0-2.537-4.657,8.793,8.793,0,0,0-4.759-2.581,13.1,13.1,0,0,0-2.13-.175,5.012,5.012,0,0,0-.515.021,10.418,10.418,0,0,0-3.139.895,9.446,9.446,0,0,0-4.784,5.427,7.667,7.667,0,0,0-.44,2.933,7.377,7.377,0,0,0,.421,2.842,9.311,9.311,0,0,0,7.633,6.328A7.632,7.632,0,0,0,104.777-347.095Z" transform="translate(-40.241 -120.031)" fill="#fff"/>
    <path id="Path_44329" data-name="Path 44329" d="M139-272.824a7.8,7.8,0,0,0-4.77,2.094l-.357.39-.456-.242a9.163,9.163,0,0,0-4.6-.9.579.579,0,0,0-.511.187c-.3.269-.313.549-.066.962a4.828,4.828,0,0,1,.753,1.989,3.624,3.624,0,0,0,1.154,2.253,3.26,3.26,0,0,0,2.533,1.121,2.694,2.694,0,0,0,1.561-.418c.264-.159.28-.165.412-.077a3.4,3.4,0,0,0,3.726-.093,5.142,5.142,0,0,0,1.885-2.27,7.521,7.521,0,0,0,.44-1.8,6.11,6.11,0,0,1,.714-1.912,1.143,1.143,0,0,0,.22-.61.731.731,0,0,0-.412-.681A8.12,8.12,0,0,0,139-272.824Zm1.539.879c0,.016-.071.17-.154.346a7.307,7.307,0,0,0-.692,2.292,4.038,4.038,0,0,1-1.511,2.737,2.442,2.442,0,0,1-2.731.451,2.406,2.406,0,0,1-.484-.3c-.1-.1-.093-.121.242-.528a8.477,8.477,0,0,1,1.956-1.643c1.033-.676,1.143-.764,1.2-.934a.476.476,0,0,0-.528-.566,14.035,14.035,0,0,0-1.808,1.127,8.127,8.127,0,0,0-1.379,1.231c-.176.2-.335.352-.352.324a3.052,3.052,0,0,1-.088-.456,2.8,2.8,0,0,1,.681-2.22,7.2,7.2,0,0,1,4.352-1.83A6.332,6.332,0,0,1,140.537-271.945Zm-9.43,1.566c1.072.209,2.4.769,2.313.978a4.637,4.637,0,0,0-.121.505c-.049.225-.093.418-.1.429a4.006,4.006,0,0,1-.561-.308,4.206,4.206,0,0,0-1.225-.616.646.646,0,0,0-.44.434c0,.247.126.374.731.72.341.192.846.495,1.121.676.506.324.511.324.742.8.126.264.236.495.247.511a.942.942,0,0,1-.324.187,1.548,1.548,0,0,1-.841.159,1.911,1.911,0,0,1-.786-.115,3.412,3.412,0,0,1-1.66-1.533,4.9,4.9,0,0,1-.33-1.11,5.358,5.358,0,0,0-.528-1.616l-.143-.28.654.033A10.059,10.059,0,0,1,131.107-270.379Z" transform="translate(-70.396 -207.184)" fill="#fff"/>
    <path id="Path_44329_-_Outline" data-name="Path 44329 - Outline" d="M140.366-273h0a3.333,3.333,0,0,1,.9.079.832.832,0,0,1,.474.774,1.223,1.223,0,0,1-.234.661,6.03,6.03,0,0,0-.7,1.88,7.627,7.627,0,0,1-.446,1.817,5.258,5.258,0,0,1-1.922,2.314,3.617,3.617,0,0,1-2.026.621,3.284,3.284,0,0,1-1.81-.527.234.234,0,0,0-.076-.04.909.909,0,0,0-.23.119,2.781,2.781,0,0,1-1.612.432h-.026a3.356,3.356,0,0,1-2.578-1.15,3.738,3.738,0,0,1-1.182-2.306,4.725,4.725,0,0,0-.74-1.955.761.761,0,0,1,.084-1.088.669.669,0,0,1,.576-.213l.3,0a9.007,9.007,0,0,1,4.352.915l.388.206.3-.333a7.942,7.942,0,0,1,4.831-2.125A12.354,12.354,0,0,1,140.366-273Zm-3.959,7.946a3.418,3.418,0,0,0,1.915-.587,5.056,5.056,0,0,0,1.848-2.225,7.4,7.4,0,0,0,.434-1.777,6.237,6.237,0,0,1,.727-1.945,1.049,1.049,0,0,0,.206-.559.63.63,0,0,0-.351-.589,3.071,3.071,0,0,0-.818-.064h0a12.137,12.137,0,0,0-1.356.076,7.744,7.744,0,0,0-4.708,2.062l-.41.447-.524-.278a9.089,9.089,0,0,0-4.551-.89.487.487,0,0,0-.444.16c-.26.236-.273.463-.049.837a4.942,4.942,0,0,1,.765,2.022,3.527,3.527,0,0,0,1.126,2.2,3.177,3.177,0,0,0,2.437,1.092h.025a2.6,2.6,0,0,0,1.509-.4.721.721,0,0,1,.334-.148.329.329,0,0,1,.186.074A3.085,3.085,0,0,0,136.407-265.055Zm3.863-7.011c.229,0,.367,0,.367.121,0,.032,0,.04-.163.389a7.185,7.185,0,0,0-.684,2.264,4.15,4.15,0,0,1-1.548,2.8,2.909,2.909,0,0,1-1.8.713,2.351,2.351,0,0,1-1.041-.251,2.427,2.427,0,0,1-.513-.319c-.163-.172-.094-.256.239-.659a8.622,8.622,0,0,1,1.979-1.663c1.025-.671,1.116-.748,1.164-.884a.3.3,0,0,0-.056-.267.365.365,0,0,0-.354-.169,14.431,14.431,0,0,0-1.772,1.11,8.035,8.035,0,0,0-1.363,1.216c-.313.362-.386.362-.421.362a.107.107,0,0,1-.092-.052,2.557,2.557,0,0,1-.1-.493,2.9,2.9,0,0,1,.706-2.3,7.272,7.272,0,0,1,4.416-1.863C139.587-272.049,140.018-272.066,140.27-272.066Zm.125.2-.125,0c-.255,0-.685.018-1.014.053a7.069,7.069,0,0,0-4.289,1.8,2.7,2.7,0,0,0-.657,2.137c.019.131.037.236.052.31.054-.051.128-.128.214-.227a8.22,8.22,0,0,1,1.4-1.246,13.551,13.551,0,0,1,1.842-1.143.44.44,0,0,1,.1-.012.587.587,0,0,1,.462.26.493.493,0,0,1,.082.449c-.072.2-.188.294-1.243.985a8.432,8.432,0,0,0-1.934,1.623,2.4,2.4,0,0,0-.274.364.382.382,0,0,0,.027.031,2.379,2.379,0,0,0,.456.276,2.152,2.152,0,0,0,.952.23,2.716,2.716,0,0,0,1.672-.67,3.961,3.961,0,0,0,1.474-2.673,7.369,7.369,0,0,1,.7-2.321C140.319-271.7,140.363-271.791,140.4-271.864Zm-11.358,1.2.827.042a10.165,10.165,0,0,1,1.262.15,5.324,5.324,0,0,1,2.373.968.166.166,0,0,1,.014.145,4.622,4.622,0,0,0-.116.488,3.8,3.8,0,0,1-.107.454l-.007.015-.041.041H133.2c-.029,0-.072,0-.61-.323a4.1,4.1,0,0,0-1.174-.6.592.592,0,0,0-.34.334c0,.188.089.294.681.633.33.186.842.491,1.126.679l.015.01a1.436,1.436,0,0,1,.762.827l.06.126c.084.174.17.355.183.377a.1.1,0,0,1,.011.084c-.008.027-.027.091-.38.247a1.645,1.645,0,0,1-.881.168,1.991,1.991,0,0,1-.823-.123,3.505,3.505,0,0,1-1.712-1.582,4.949,4.949,0,0,1-.338-1.135,5.243,5.243,0,0,0-.519-1.59Zm4.283,1.249a5.666,5.666,0,0,0-2.233-.861,9.934,9.934,0,0,0-1.233-.147l-.482-.024.064.126a5.472,5.472,0,0,1,.536,1.641,4.841,4.841,0,0,0,.321,1.085,3.291,3.291,0,0,0,1.607,1.485,1.824,1.824,0,0,0,.749.108,1.461,1.461,0,0,0,.8-.15,2.315,2.315,0,0,0,.241-.122l-.153-.317-.06-.125c-.216-.442-.216-.442-.689-.745l-.016-.01c-.282-.186-.789-.488-1.116-.673-.6-.342-.782-.5-.782-.807a.715.715,0,0,1,.54-.534c.118,0,.362.075,1.277.63.21.126.355.208.44.253.017-.072.04-.177.07-.31C133.242-269.121,133.293-269.337,133.321-269.42Z" transform="translate(-70.396 -207.184)" fill="#fff"/>
    <path id="Path_44330" data-name="Path 44330" d="M6.526.086A8.755,8.755,0,0,0,1.175,2.435l-.4.438A2.693,2.693,0,0,0,0,4.974,7.407,7.407,0,0,0,1.65,8.341a3.816,3.816,0,0,0,4.18-.1A5.768,5.768,0,0,0,7.944,5.69a8.44,8.44,0,0,0,.493-2.016,6.854,6.854,0,0,1,.8-2.145A1.282,1.282,0,0,0,9.485.845.82.82,0,0,0,9.023.08,9.105,9.105,0,0,0,6.526.086Zm1.726.986c0,.019-.08.191-.173.388A8.2,8.2,0,0,0,7.3,4.032a4.53,4.53,0,0,1-1.7,3.07,2.739,2.739,0,0,1-3.064.506A2.693,2.693,0,0,1,2,7.274c-.111-.117-.1-.136.271-.592A9.509,9.509,0,0,1,4.467,4.839c1.159-.758,1.282-.857,1.35-1.048a.534.534,0,0,0-.592-.635A15.736,15.736,0,0,0,3.2,4.42,9.115,9.115,0,0,0,1.65,5.8c-.2.228-.376.395-.395.364a3.416,3.416,0,0,1-.1-.512,3.136,3.136,0,0,1,.764-2.491A8.083,8.083,0,0,1,6.8,1.11,7.1,7.1,0,0,1,8.252,1.073ZM.436,6.886c.142.3.265.555.277.573S.177,6.356.436,6.886Z" transform="translate(84.631 -500.447) rotate(-60)" fill="#fff"/>
    <path id="Path_44330_-_Outline" data-name="Path 44330 - Outline" d="M8.062-.1a3.9,3.9,0,0,1,1,.088.921.921,0,0,1,.524.857,1.363,1.363,0,0,1-.26.735,6.777,6.777,0,0,0-.789,2.113,8.552,8.552,0,0,1-.5,2.036A5.886,5.886,0,0,1,5.885,8.319a4.046,4.046,0,0,1-2.266.695A3.672,3.672,0,0,1,1.6,8.425,7.365,7.365,0,0,1-.1,4.986V4.977A2.894,2.894,0,0,1,.633,2.866a.633.633,0,0,1,.078-.072l.39-.426A8.9,8.9,0,0,1,6.514-.013,13.844,13.844,0,0,1,8.062-.1ZM3.619,8.814a3.847,3.847,0,0,0,2.155-.661,5.684,5.684,0,0,0,2.078-2.5,8.314,8.314,0,0,0,.487-2,6.985,6.985,0,0,1,.814-2.178A1.187,1.187,0,0,0,9.385.845a.719.719,0,0,0-.4-.672A3.444,3.444,0,0,0,8.062.1,13.63,13.63,0,0,0,6.538.186,8.7,8.7,0,0,0,1.249,2.5l-.6.659A2.8,2.8,0,0,0,.1,4.967a7.306,7.306,0,0,0,1.6,3.292A3.472,3.472,0,0,0,3.619,8.814ZM7.953.949c.266,0,.4,0,.4.124,0,.033,0,.042-.182.431A8.072,8.072,0,0,0,7.4,4.046,4.644,4.644,0,0,1,5.67,7.18a3.251,3.251,0,0,1-2.008.8A2.626,2.626,0,0,1,2.5,7.7a2.708,2.708,0,0,1-.572-.355c-.175-.185-.1-.278.268-.723A9.658,9.658,0,0,1,4.413,4.756c1.153-.755,1.255-.842,1.31-1a.346.346,0,0,0-.065-.31.421.421,0,0,0-.409-.194A16.169,16.169,0,0,0,3.257,4.5,9.021,9.021,0,0,0,1.726,5.867c-.348.4-.428.4-.463.4a.108.108,0,0,1-.093-.052,3.048,3.048,0,0,1-.112-.549A3.244,3.244,0,0,1,1.847,3.1,8.146,8.146,0,0,1,6.793,1.01C7.188.968,7.671.949,7.953.949Zm.159.2c-.038,0-.09,0-.159,0-.277,0-.752.019-1.139.06A7.943,7.943,0,0,0,2,3.23a3.037,3.037,0,0,0-.74,2.408c.023.16.045.286.062.369a3.575,3.575,0,0,0,.257-.271,9.207,9.207,0,0,1,1.564-1.4A15.542,15.542,0,0,1,5.2,3.06a.481.481,0,0,1,.113-.014.646.646,0,0,1,.508.286.541.541,0,0,1,.09.492c-.079.223-.209.326-1.39,1.1A9.469,9.469,0,0,0,2.35,6.746a2.224,2.224,0,0,0-.311.42s.026.03.035.039a2.673,2.673,0,0,0,.515.312,2.427,2.427,0,0,0,1.074.26,3.059,3.059,0,0,0,1.883-.754A4.455,4.455,0,0,0,7.2,4.017a8.256,8.256,0,0,1,.786-2.6C8.022,1.35,8.075,1.236,8.113,1.152Z" transform="translate(84.631 -500.447) rotate(-60)" fill="#fff"/>
  </g>
</svg>