<svg xmlns="http://www.w3.org/2000/svg" width="66.437" height="39.881" viewBox="0 0 66.437 39.881" class="svg replaced-svg">
  <g id="Fuel4u_Default" transform="translate(6112.014 -4139.8)">
    <g id="Group_12185" data-name="Group 12185" transform="translate(-6112.014 4139.8)">
      <g id="MDU03" transform="translate(0 5.027)">
        <path id="Path_44320" data-name="Path 44320" d="M244.938-304.58a6.184,6.184,0,0,0-3.338,3.5c-.225.61-.738,2.921-1.187,5.135s-.931,4.59-1.091,5.3a67.911,67.911,0,0,0-.321,7.286v6.034l1.284.193c1.22.193,1.284.289,1.284,1.316,0,2.471,2.5,5.264,5.1,5.713a7.121,7.121,0,0,0,5.007-1.316,7.186,7.186,0,0,0,2.407-4.525c0-1.284-.289-1.252,10.688-1.123l8.89.1v.995a6.244,6.244,0,0,0,.674,2.375,6.287,6.287,0,0,0,8.922,2.6,6.858,6.858,0,0,0,2.921-4.782c0-1.123.064-1.22.931-1.22.834,0,.931.128,1.123,1.316a7.1,7.1,0,0,0,5.36,5.585,6.438,6.438,0,0,0,4.557-1.155,3.034,3.034,0,0,1,.867-.61c.417,0,1.573-2.471,1.8-3.755l.193-1.316,1.8-.128c2.439-.225,2.632-.578,2.632-4.59,0-2.76-.1-3.338-.578-3.787-.546-.514-2.7-.546-24.553-.546H256.331v-9.083c0-6.644-.1-9.179-.385-9.468C255.5-305,246.478-305.029,244.938-304.58Zm9.468,8.473v6.9H240.862l.193-.738c.128-.385.642-2.792,1.155-5.36,1.091-5.52,1.284-6.13,2.439-7.029.77-.61,1.252-.674,5.3-.674h4.461Zm0,12.838c0,3.049-.1,4.333-.385,4.333a4.545,4.545,0,0,1-1.476-1.284,8.478,8.478,0,0,0-2.054-1.8,8.058,8.058,0,0,0-5.552.032c-1.091.546-2.728,2.15-2.728,2.76,0,.16-.353.289-.8.289h-.8v-4.108a22.4,22.4,0,0,1,.225-4.333,55.007,55.007,0,0,1,6.9-.225h6.676Zm49.105,1.765v2.568h-1.476c-1.348,0-1.6-.128-2.728-1.412a6.481,6.481,0,0,0-7.125-1.829c-1.091.385-3.113,2.279-3.113,2.921,0,.193-.8.321-1.765.321s-1.765-.16-1.765-.321a3.743,3.743,0,0,0-.867-1.316,6.475,6.475,0,0,0-9.725.481l-.8,1.123-8.73.032h-8.762v-5.135h46.859Zm-53.984.995a4.683,4.683,0,0,1,2.632,4.076,4.329,4.329,0,0,1-6.836,3.723c-1.412-.963-1.829-1.829-1.829-3.948C243.493-279.739,246.414-281.6,249.527-280.509Zm32.288.1c1.7.706,2.439,1.926,2.439,4.044a3.838,3.838,0,0,1-.674,2.7,4.428,4.428,0,0,1-7.992-2.728A4.356,4.356,0,0,1,281.815-280.412Zm15.791.867a4.281,4.281,0,0,1,.931,4.943,4.359,4.359,0,0,1-7.863.417,4.231,4.231,0,0,1,.032-4.429,4.006,4.006,0,0,1,4.269-2.086A3.653,3.653,0,0,1,297.605-279.546Z" transform="translate(-239 304.901)" fill="#fff"/>
      </g>
      <path id="Line_68" data-name="Line 68" d="M2.586.75H0A.75.75,0,0,1-.75,0,.75.75,0,0,1,0-.75H2.586a.75.75,0,0,1,.75.75A.75.75,0,0,1,2.586.75Z" transform="translate(9.714 19.004)" fill="#fff"/>
      <g id="Group_12185-2" data-name="Group 12185" transform="translate(20.702 0)">
        <path id="Rectangle_4642" data-name="Rectangle 4642" d="M3,1.8A1.2,1.2,0,0,0,1.8,3V18.977a1.2,1.2,0,0,0,1.2,1.2H42.246a1.2,1.2,0,0,0,1.2-1.2V3a1.2,1.2,0,0,0-1.2-1.2H3M3,0H42.246a3,3,0,0,1,3,3V18.977a3,3,0,0,1-3,3H3a3,3,0,0,1-3-3V3A3,3,0,0,1,3,0Z" fill="#fff"/>
        <path id="Path_44321" data-name="Path 44321" d="M3.673-8.292l2.87,8h.031l2.792-8h2.746V2.427H10.282V-5.7h-.031L7.3,2.427H5.737L2.789-5.67H2.758v8.1H.912V-8.292Zm15.079,0a5.446,5.446,0,0,1,2.645.605A4.106,4.106,0,0,1,23.111-5.9a6.391,6.391,0,0,1,.605,2.924,6.722,6.722,0,0,1-.582,2.932A4.086,4.086,0,0,1,21.443,1.8a5.382,5.382,0,0,1-2.692.628H14.486V-8.292ZM18.488.783a3.278,3.278,0,0,0,2.436-.861,3.818,3.818,0,0,0,.853-2.769,5.2,5.2,0,0,0-.4-2.2A2.488,2.488,0,0,0,20.21-6.268a4.515,4.515,0,0,0-1.986-.38h-1.8V.783ZM27.5-1.652A2.925,2.925,0,0,0,28.106.357a2.441,2.441,0,0,0,1.908.675,3.145,3.145,0,0,0,1.45-.287,1.739,1.739,0,0,0,.807-.869,3.791,3.791,0,0,0,.256-1.513V-8.292h1.939v6.748a4.756,4.756,0,0,1-.5,2.265,3.386,3.386,0,0,1-1.5,1.45,5.376,5.376,0,0,1-2.451.5,4.547,4.547,0,0,1-3.335-1.109,4.188,4.188,0,0,1-1.117-3.11V-8.292H27.5Z" transform="translate(5.552 13.463)" fill="#fff"/>
      </g>
    </g>
  </g>
</svg>