<svg xmlns="http://www.w3.org/2000/svg" width="41.858" height="58.3" viewBox="0 0 41.858 58.3" class="svg replaced-svg">
  <g id="Fleet_Trans-Connect_Default" data-name="Fleet Trans-Connect_Default" transform="translate(0.2 526.895)">
    <path id="Path_41758" data-name="Path 41758" d="M5.044-511.877a2.125,2.125,0,0,0-.555.384c-.515.5-.506.359-.506,7.793v6.723H2.308c-1.871,0-2.14.057-2.361.482a47.257,47.257,0,0,0,0,7.45c.221.425.49.482,2.353.482H3.974l.025,3.9a23.144,23.144,0,0,0,.131,4.044c.1.114.1.18,0,.441a7.04,7.04,0,0,0-.106,1.658c0,1.283.008,1.372.212,1.805A2.514,2.514,0,0,0,6.1-475.255l.376.049.041,1.552c.049,1.805.147,2.14.809,2.761.678.637.866.67,3.439.67,2.189,0,2.255-.008,2.639-.188a2.748,2.748,0,0,0,1.274-1.364,4.932,4.932,0,0,0,.172-1.92v-1.47H26.611v1.47a4.931,4.931,0,0,0,.172,1.92,2.748,2.748,0,0,0,1.274,1.364c.384.18.449.188,2.639.188,2.573,0,2.761-.033,3.439-.67.662-.621.76-.956.809-2.761l.041-1.552.376-.049a2.514,2.514,0,0,0,1.863-1.454c.2-.433.212-.523.212-1.805a7.041,7.041,0,0,0-.106-1.658c-.1-.261-.1-.327,0-.441a23.144,23.144,0,0,0,.131-4.044l.025-3.9h1.675c1.863,0,2.132-.057,2.353-.482a47.257,47.257,0,0,0,0-7.45c-.221-.425-.49-.482-2.361-.482H37.475V-503.7c0-7.434.008-7.295-.506-7.793-.572-.556.727-.515-16.256-.515C7.16-512,5.3-511.983,5.044-511.877ZM35.76-500.105v10.277l-.359.229a2.133,2.133,0,0,1-.408.22c-.025,0-.049-2.745-.049-6.11,0-6.829.008-6.731-.572-7.7a4.12,4.12,0,0,0-1.544-1.544c-1-.6-.392-.572-12.1-.572s-11.093-.025-12.1.572a4.12,4.12,0,0,0-1.544,1.544c-.58.972-.572.874-.572,7.7,0,3.366-.025,6.11-.049,6.11a1.909,1.909,0,0,1-.408-.229l-.359-.221v-20.545H35.76Zm-4-3.317a2.711,2.711,0,0,1,1.3,1.3l.212.449.025,7.368.025,7.377H32.86a2.17,2.17,0,0,0-.719.114,8.031,8.031,0,0,0-1.2,1.062L30-484.8l-.041,1.454-.041,1.446H11.539l-.041-1.446-.041-1.454-.939-.948a8.031,8.031,0,0,0-1.2-1.062,2.17,2.17,0,0,0-.719-.114H8.141l.025-7.377.025-7.368.212-.449a2.6,2.6,0,0,1,1.863-1.47c.2-.033,5.024-.057,10.71-.049l10.334.008ZM3.983-492.77v2.492H1.45v-4.983H3.983Zm36.025,0v2.492H37.475v-4.983h2.532ZM6.515-484.584v2.72H5.7v-5.963l.408.261.408.27Zm29.245-.261v2.982h-.817v-5.457l.392-.253a4.494,4.494,0,0,1,.408-.253C35.752-487.827,35.76-486.488,35.76-484.846Zm-26.492.221.6.588v2.181l-.833-.025L8.19-481.9l-.025-1.658-.016-1.65H8.41C8.631-485.213,8.778-485.115,9.268-484.625Zm24.025,1.062-.025,1.658-.833.025-.841.025v-2.173l.588-.588c.5-.5.637-.6.858-.6h.27Zm2.018,3.455c.392.188.449.409.449,1.617,0,1.152-.049,1.307-.466,1.519-.253.131-28.877.131-29.131,0-.417-.212-.466-.368-.466-1.519a5.936,5.936,0,0,1,.09-1.283c.221-.482-.719-.457,14.925-.457C33.481-480.23,35.074-480.214,35.31-480.108Zm-22.1,6.2c0,2.108.065,2.05-2.5,2.05-2.614,0-2.508.074-2.549-1.944l-.033-1.364h5.081Zm20.079.106c-.041,2.018.065,1.944-2.549,1.944-2.565,0-2.5.057-2.5-2.05v-1.258h5.081Z" transform="translate(0 1.629)" fill="#fff"/>
    <path id="Path_41759" data-name="Path 41759" d="M113.939-388.845a1.528,1.528,0,0,0-.817.841c-.106.261-.123.972-.123,5.245v4.942l.188.2a12.931,12.931,0,0,0,2.222,1.086l2.042.882h14.459l2.042-.882a13.588,13.588,0,0,0,2.23-1.086l.18-.2v-4.959c0-4.648-.016-4.983-.155-5.285a1.528,1.528,0,0,0-.841-.817c-.27-.106-1.5-.123-10.7-.123C114.732-389,114.25-388.992,113.939-388.845Zm20.774,5.824-.025,4.346-1.552.67-1.552.678-1.323.008h-1.323l.221-.392.229-.384,1.348-.041a9.694,9.694,0,0,0,1.479-.114.841.841,0,0,0,.392-.743.7.7,0,0,0-.237-.539l-.237-.237h-5.71l-.212.2a.786.786,0,0,0-.2.841c.1.368.474.588,1.029.588h.433l-.221.408-.221.408h-6.437l.221-.4.212-.408,1.372-.025c1.315-.024,1.389-.033,1.577-.212a.77.77,0,0,0,.221-.874c-.172-.531-.18-.531-3.268-.531a25.289,25.289,0,0,0-2.949.082.922.922,0,0,0-.368.858c.082.433.384.637.98.678l.523.033-.221.384c-.221.368-.229.376-.67.392-.392.016-.6-.049-1.993-.654l-1.552-.678-.049-4.289c-.025-2.353-.033-4.305-.016-4.346s4.55-.057,10.081-.057h10.04Z" transform="translate(-103.953 -111.331)" fill="#fff"/>
    <path id="Path_41760" data-name="Path 41760" d="M164.58-204.61a.919.919,0,0,0-.392.278.777.777,0,0,0,.335,1.266c.408.172,13.544.172,13.953,0a.771.771,0,0,0,.3-1.291l-.237-.27-6.895-.008C167.856-204.643,164.678-204.634,164.58-204.61Z" transform="translate(-150.77 -280.633)" fill="#fff"/>
    <path id="Path_41761" data-name="Path 41761" d="M164.417-173.935a.886.886,0,0,0-.417.686,1.071,1.071,0,0,0,.4.752c.106.057,2.5.082,7.115.082s7.009-.025,7.115-.082a1.1,1.1,0,0,0,.4-.735.887.887,0,0,0-.449-.719C178.255-174.1,164.686-174.082,164.417-173.935Z" transform="translate(-150.787 -308.718)" fill="#fff"/>
    <path id="Path_41762" data-name="Path 41762" d="M174.994-112.9a.807.807,0,0,0-.221,1.4c.212.163.351.172,1.961.2.956.016,1.854,0,2.01-.025a.83.83,0,0,0,0-1.626A23.627,23.627,0,0,0,174.994-112.9Z" transform="translate(-160.392 -364.78)" fill="#fff"/>
    <path id="Path_41763" data-name="Path 41763" d="M277.5-112.61a.939.939,0,0,0-.384.245.823.823,0,0,0,.294,1.323,12.039,12.039,0,0,0,1.977.09c1.479,0,1.764-.025,2.01-.147a.719.719,0,0,0,.417-.923c-.172-.572-.286-.6-2.336-.613C278.491-112.643,277.6-112.634,277.5-112.61Z" transform="translate(-254.462 -365.117)" fill="#fff"/>
    <g id="reshot-icon-wifi-97FCHA2NWB" transform="translate(10.167 -526.894)">
      <g id="Group_4683" data-name="Group 4683" transform="translate(0 0)">
        <path id="Path_41767" data-name="Path 41767" d="M1.182,9.02a.681.681,0,0,1-.49-1.154,14.588,14.588,0,0,1,20.728-.3.681.681,0,1,1-.953.974,13.225,13.225,0,0,0-18.794.271A.684.684,0,0,1,1.182,9.02Z" transform="translate(-0.5 -3.392)" fill="#fff"/>
      </g>
      <g id="Group_4684" data-name="Group 4684" transform="translate(2.785 3.299)">
        <path id="Path_41768" data-name="Path 41768" d="M5.269,13.642a.681.681,0,0,1-.49-1.154,10.617,10.617,0,0,1,15.164-.138.681.681,0,1,1-.964.964,9.253,9.253,0,0,0-13.219.121A.684.684,0,0,1,5.269,13.642Z" transform="translate(-4.587 -9.233)" fill="#fff"/>
      </g>
      <g id="Group_4685" data-name="Group 4685" transform="translate(5.623 6.598)">
        <path id="Path_41769" data-name="Path 41769" d="M9.434,18.264a.681.681,0,0,1-.49-1.154,6.643,6.643,0,0,1,9.487-.087.681.681,0,1,1-.964.964,5.28,5.28,0,0,0-7.543.07A.684.684,0,0,1,9.434,18.264Z" transform="translate(-8.752 -15.074)" fill="#fff"/>
      </g>
      <g id="Group_4686" data-name="Group 4686" transform="translate(7.836 9.954)">
        <path id="Path_41770" data-name="Path 41770" d="M14.726,26.451a2.726,2.726,0,1,1,2.726-2.726A2.728,2.728,0,0,1,14.726,26.451Zm0-4.089a1.363,1.363,0,1,0,1.363,1.363A1.364,1.364,0,0,0,14.726,22.363Z" transform="translate(-12 -21)" fill="#fff"/>
      </g>
    </g>
  </g>
</svg>