<svg xmlns="http://www.w3.org/2000/svg" width="16.086" height="11.471" viewBox="0 0 16.086 11.471" class="svg replaced-svg">
  <path id="Path_41977" data-name="Path 41977" d="M181.366,154H170.724a2.682,2.682,0,0,0-1.925.821,2.846,2.846,0,0,0-.8,1.983v5.863h0a2.847,2.847,0,0,0,.8,1.983,2.682,2.682,0,0,0,1.925.821h10.642a2.682,2.682,0,0,0,1.925-.821,2.847,2.847,0,0,0,.8-1.983V156.8h0a2.847,2.847,0,0,0-.8-1.983A2.682,2.682,0,0,0,181.366,154Zm-4.64,7.01-2.413,1.275v-5.1l4.826,2.549Z" transform="translate(-168.002 -154)" fill="#fff"/>
</svg>