<svg xmlns="http://www.w3.org/2000/svg" width="55.738" height="54.208" viewBox="0 0 55.738 54.208" class="svg replaced-svg">
  <g id="fuel-station-_1_" transform="translate(-0.525 509.943)">
    <path id="Path_671" data-name="Path 671" d="M5.462-509.761a21.349,21.349,0,0,0-3.246,3.246c-.193.387-.216.671-.216,3.05,0,2.412,2.077,1.445.228,1.073a1.524,1.524,0,0,0,.683.683c.444.228-1.385.228,25.2.228H54.85v19.021H50.981c-3.664,0-5.235-.987-5.235,1.528v3.162H43.471c-1.069,0-2.612.239-3.04,3.324-.228,1.593-.432,4.073-.478,4.266l-.057.376H38.111a12.453,12.453,0,0,1-2.853-.2,11.371,11.371,0,0,0-1.514-3.424c-.41-.421-.149-1.058.545-1.775a6.591,6.591,0,0,0,.945-1.138c.694-1.388.147-1.936-1.242-1.242a5.456,5.456,0,0,0-1.013.819,3.135,3.135,0,0,1-.66.569,6.32,6.32,0,0,1-1.512-2.617,13.039,13.039,0,0,0-.967-3.459c-.831-1.7-1.595-2.027-3.438-2.346-.512-.091-3.05-.114-8.08-.091l-7.34.034-.762.3a5.83,5.83,0,0,0-3.472,4.566c-.284,1.4-.512,3.583-.512,3.617a3.777,3.777,0,0,1-1.649-.569,5.845,5.845,0,0,0-1.024-.819c-1.388-.694-1.936-.146-1.242,1.242a6.591,6.591,0,0,0,.945,1.138c.706.728.112,2.151-.252,2.72a7.93,7.93,0,0,0-.66,1.32c-.3.763-.3.763-.33,5-.034,4.1-.034,4.245.193,4.689.364.694.181.9,2.2.922v3.414H2.39a2.915,2.915,0,0,0-1.479.228c-.512.262-.512.7,0,.959.444.228.6.228,28.222.228s25.778,0,26.222-.228a1.525,1.525,0,0,0,.683-.683c.228-.444.228,1.386.228-23.946,0-23.135-.011-25.536-.182-25.866a20.745,20.745,0,0,0-3.3-3.326C52.37-510,51.858-510,5.462-509.761ZM54.85-505v2.105H3.414V-505L5.2-506.788l1.8-1.8H51.266ZM26.082-483.209a3.239,3.239,0,0,1,1.661,1.331,21.179,21.179,0,0,1,.865,3.494l.6,3.027H8.341l.6-3.027c.66-3.255.819-3.7,1.536-4.279.819-.66.694-.649,8.239-.66C23.169-483.323,25.809-483.277,26.082-483.209ZM54.85-469.1v11.949h-7.69v-23.9h7.69Zm-9.1,2.845v9.1H33.139v-3.414a2.7,2.7,0,0,0,2.186-.91c.2-.41.228-.66.228-3.186v-3.731h3.627c1.117,0,.847-.162,1.562-.4.324-.011.4-.376.75-2.863.228-1.627.444-3.129.489-3.334l1.057-1.364h2.708Zm-13.485-6.5c.717.239,1.445,1.967,1.684,2.684a11.7,11.7,0,0,1,.193,3.323v4.765H3.414v-4.765c0-3.209,1.28-6.243,3.245-6.65,1.372-.292,4.763-.534,12.072-.539C30.532-473.943,31.761-472.92,32.262-472.75Zm-21.02,13.893v1.707H5.828v-3.414h5.414Zm13.656,0v1.707H12.656v-3.414H24.9Zm6.828,0v1.707H26.311v-3.414h5.414Z" transform="translate(0 0)" fill="#fff"/>
    <circle id="Ellipse_105" data-name="Ellipse 105" cx="1.793" cy="1.793" r="1.793" transform="translate(9.067 -469.542)" fill="#fff"/>
    <circle id="Ellipse_106" data-name="Ellipse 106" cx="1.793" cy="1.793" r="1.793" transform="translate(25.202 -469.542)" fill="#fff"/>
    <rect id="Rectangle_266" data-name="Rectangle 266" width="1.689" height="19.72" transform="translate(50.645 -478.505)" fill="#fff"/>
  </g>
</svg>