<svg xmlns="http://www.w3.org/2000/svg" width="64.301" height="52.435" viewBox="0 0 64.301 52.435" class="svg replaced-svg">
  <g id="airport" transform="translate(0.15 464.15)">
    <path id="Path_646" data-name="Path 646" d="M12.315-463.687A.975.975,0,0,0,12-463v.375H10.977c-1.588.013-2.4.488-2.738,1.625a4.635,4.635,0,0,0,.125,2.038c.138.863.263,1.625.263,1.7s-.35.138-.963.138a2.493,2.493,0,0,0-1.463.288c-.875.5-.95.788-.95,3.688,0,2.776.075,3.138.7,3.638a2.159,2.159,0,0,0,.7.35L7-449.1v1.088c0,1.825.588,2.513,2.138,2.513H10v2.5c0,2.338.013,2.513.25,2.751a.966.966,0,0,0,1.263.013c.3-.238.3-.288.338-2.751l.038-2.513H14v17.253H11.89l-.038-4.388-.038-4.388-.3-.238a.881.881,0,0,0-1.238.05c-.275.288-.275.35-.275,4.613v4.313l-1.338.075a12.156,12.156,0,0,0-2.038.288,7.54,7.54,0,0,0-4.976,4.688l-.338.925-.038,4.288-.038,4.276H.925A1.1,1.1,0,0,0,0-412.8a1.03,1.03,0,0,0,.313.625l.3.313H63.4l.3-.313a.8.8,0,0,0,0-1.25l-.3-.313H38.182l-1.488-1.35c-2.363-2.125-2.525-2.2-3.126-1.588-.55.538-.438.875.725,1.963l1.025.963-14.478.012H6.351l3.213-3.288a49.053,49.053,0,0,1,3.713-3.563l.513-.275H20.3c3.988,0,6.689.05,6.964.125a7.532,7.532,0,0,1,1.788,1.313c1.238,1.113,1.475,1.25,1.95,1.2a1.294,1.294,0,0,0,.75-.925c0-.425-2.375-2.626-3.376-3.126l-.8-.4-2.826-.038-2.826-.038-.225-.65a8.415,8.415,0,0,0-1.988-2.9,8.631,8.631,0,0,0-3.063-1.638l-.775-.213V-445.5h.863c1.538,0,2.138-.7,2.138-2.513,0-1.063,0-1.088.325-1.163a1.827,1.827,0,0,0,1.188-.963c.213-.425.238-.75.238-3,0-2.326-.025-2.55-.263-2.988-.413-.725-1.013-1-2.2-1h-1l.288-1.65a4.8,4.8,0,0,0,.163-2.15c-.325-1.213-1.113-1.7-2.713-1.7H13.878V-463a1.081,1.081,0,0,0-.938-1A1.03,1.03,0,0,0,12.315-463.687Zm3.413,3.1c.088.1.038.625-.175,1.775-.163.9-.3,1.638-.3,1.663s-1.05.013-2.338,0l-2.338-.038L10.29-458.8c-.213-1.2-.25-1.663-.15-1.788A22.589,22.589,0,0,1,15.728-460.587Zm3.026,7.464V-451H7.126v-4.251H18.754ZM17-448.247v.875H8.877v-1.75H17ZM15.916-426.18a5.676,5.676,0,0,1,3.751,2.776l.35.65-3.351.038-3.363.038-.8.4c-.713.35-1.288.888-4.788,4.463-3.063,3.126-4.051,4.076-4.288,4.076h-.3v-3.851c0-4.088.063-4.676.638-5.8a5.95,5.95,0,0,1,3.876-2.838A56.966,56.966,0,0,1,15.916-426.18Z" transform="translate(0 0)" fill="#fff" stroke="#a3c854" stroke-width="0.3"/>
    <g id="Group_4121" data-name="Group 4121" transform="translate(8.758 -454.011)">
      <path id="Path_647" data-name="Path 647" d="M70.294-383.839a1,1,0,0,0,0,1.313.931.931,0,0,0,1.538-.675A.9.9,0,0,0,70.294-383.839Z" transform="translate(-70.05 384.102)" fill="#fff"/>
      <path id="Path_648" data-name="Path 648" d="M97.219-383.754a1.088,1.088,0,0,0,.038,1.338.892.892,0,0,0,1.5-.688.917.917,0,0,0-.225-.663A1.105,1.105,0,0,0,97.219-383.754Z" transform="translate(-93.637 383.991)" fill="#fff"/>
      <path id="Path_649" data-name="Path 649" d="M122.382-383.738a.743.743,0,0,0,.025,1.125.885.885,0,0,0,1.588-.588A.91.91,0,0,0,122.382-383.738Z" transform="translate(-115.624 384.076)" fill="#fff"/>
    </g>
    <path id="Path_650" data-name="Path 650" d="M202.483-318.828c-1.05.25-7.139,2.438-7.339,2.638a.951.951,0,0,0,.1,1.338,1.222,1.222,0,0,0,.475.263c.088,0,1.688-.538,3.576-1.2,3.388-1.188,3.463-1.213,4.813-1.263a9.154,9.154,0,0,1,1.813.05l.438.125-.488.138c-.688.2-.95.475-.95,1.038a.8.8,0,0,0,.863.863,14.755,14.755,0,0,0,1.9-.45l1.613-.45.525.3c.725.4.95.863.688,1.413-.238.488.4.275-6.614,2.25l-5.589,1.563-.463-.313a2.769,2.769,0,0,0-.85-.375,25.516,25.516,0,0,0-5.439,1.525,3.454,3.454,0,0,0-.838,1.263c-.013.025-1.5.463-3.313.975l-3.3.938-5.126.025-5.126.025v-.375c0-.363.038-.388,1.313-.838,12.9-4.5,16.466-5.751,16.7-5.914a.891.891,0,0,0-.2-1.563c-.325-.138-.8,0-5.089,1.5-2.6.913-4.763,1.675-4.8,1.7s-1.363-1.088-2.938-2.475a36.134,36.134,0,0,0-3.4-2.751,4.3,4.3,0,0,0-2.788,0c-1.013.3-1.313.463-1.488.775-.3.563-.138.925,1.7,3.863a21.261,21.261,0,0,1,1.713,3.013,4.786,4.786,0,0,1-.888.375,2.579,2.579,0,0,0-1.725,1.688,2.351,2.351,0,0,0,1.313,2.726c.563.238.725.25,5.826.175l5.251-.075,3.313-.95c1.825-.513,3.351-.938,3.4-.938a1.04,1.04,0,0,1,.225.463,2.346,2.346,0,0,0,1.413,1.425c.438.113.75.05,2.938-.575,2.088-.6,2.525-.763,2.876-1.1a1.79,1.79,0,0,0,.513-1.813,2.074,2.074,0,0,1-.075-.6c.025-.025,2.638-.775,5.826-1.675s6-1.738,6.276-1.875a3.015,3.015,0,0,0,.85-.75,2.886,2.886,0,0,0-.538-4.013,27.051,27.051,0,0,0-4.688-2A12.531,12.531,0,0,0,202.483-318.828ZM174.8-315.09c.275.15,4.651,3.988,4.713,4.138a19.463,19.463,0,0,1-2.888,1.05,37.169,37.169,0,0,1-3.163-5.214A2.135,2.135,0,0,1,174.8-315.09Zm22.167,6.8a5.127,5.127,0,0,1,.2.85,5.625,5.625,0,0,1-1.913.7c-1.038.288-1.963.525-2.025.525a4.465,4.465,0,0,1-.538-1.675c.113-.088,3.588-1.05,3.813-1.063S196.807-308.851,196.969-308.288Z" transform="translate(-149.66 -126.906)" fill="#fff"/>
    <g id="Group_4120" data-name="Group 4120" transform="translate(35.391 -441.871)">
      <path id="Path_651" data-name="Path 651" d="M402.266-286.737a.91.91,0,0,0,.55,1.613.91.91,0,0,0,.55-1.613,1.138,1.138,0,0,0-.55-.263A1.138,1.138,0,0,0,402.266-286.737Z" transform="translate(-387.072 287)" fill="#fff"/>
      <path id="Path_652" data-name="Path 652" d="M378.27-278.681a.88.88,0,0,0,.05,1.325.72.72,0,0,0,.963.125,1.152,1.152,0,0,0,.588-.938.971.971,0,0,0-.313-.488A.85.85,0,0,0,378.27-278.681Z" transform="translate(-366.127 279.968)" fill="#fff"/>
      <path id="Path_653" data-name="Path 653" d="M354.3-270.764a.876.876,0,0,0,.688,1.475.917.917,0,0,0,.938-.875A.953.953,0,0,0,354.3-270.764Z" transform="translate(-345.186 273.039)" fill="#fff"/>
      <path id="Path_654" data-name="Path 654" d="M330.626-263.737a1.264,1.264,0,0,0-.338.625.91.91,0,0,0,1.55.75.88.88,0,0,0-.05-1.325A.853.853,0,0,0,330.626-263.737Z" transform="translate(-324.372 266.825)" fill="#fff"/>
      <path id="Path_655" data-name="Path 655" d="M307.03-255.775a.9.9,0,0,0,.038,1.363.743.743,0,0,0,1.125.025.91.91,0,0,0-.538-1.613A1.086,1.086,0,0,0,307.03-255.775Z" transform="translate(-303.776 259.876)" fill="#fff"/>
      <path id="Path_656" data-name="Path 656" d="M283.6-248.45a.968.968,0,0,0-.288,1.5c.788.788,2.1-.338,1.35-1.163A.9.9,0,0,0,283.6-248.45Z" transform="translate(-283.072 253.326)" fill="#fff"/>
    </g>
    <g id="Group_4122" data-name="Group 4122" transform="translate(9.994 -419.515)">
      <path id="Path_657" data-name="Path 657" d="M110.963-107.75a.973.973,0,0,0,.05,1.288c.225.225.413.275,1.075.275.938,0,1.35-.288,1.35-.925,0-.675-.325-.888-1.35-.888C111.351-108,111.151-107.95,110.963-107.75Z" transform="translate(-106.891 108.024)" fill="#fff"/>
      <path id="Path_658" data-name="Path 658" d="M139.184-107.915a.953.953,0,0,0,.65,1.588c1.413.225,2.413-.775,1.563-1.563A2.284,2.284,0,0,0,139.184-107.915Z" transform="translate(-131.549 108.189)" fill="#fff"/>
      <path id="Path_659" data-name="Path 659" d="M167.425-107.675c-.663.838.125,1.663,1.45,1.513.7-.075,1.038-.375,1.038-.925,0-.675-.35-.913-1.363-.913C167.763-108,167.663-107.975,167.425-107.675Z" transform="translate(-156.277 108.024)" fill="#fff"/>
      <path id="Path_660" data-name="Path 660" d="M196.229-107.775a1.089,1.089,0,0,0,.05,1.35c.2.188.45.238,1.075.238.738,0,.838-.038,1.113-.35a.748.748,0,0,0,.038-1.138c-.238-.3-.338-.325-1.163-.325C196.616-108,196.391-107.95,196.229-107.775Z" transform="translate(-181.505 108.024)" fill="#fff"/>
      <path id="Path_661" data-name="Path 661" d="M80.267-84.9a.869.869,0,0,0-.038,1.338c.238.225.438.275,1.075.275s.825-.05,1.075-.313a1.03,1.03,0,0,0,.313-.625,1.03,1.03,0,0,0-.313-.625A1.954,1.954,0,0,0,80.267-84.9Z" transform="translate(-79.934 88.057)" fill="#fff"/>
      <path id="Path_662" data-name="Path 662" d="M111.179-84.824a.94.94,0,0,0-.288,1.15c.2.475.375.55,1.3.55.8,0,1.188-.2,1.313-.688a1.176,1.176,0,0,0-.488-1.113A3.585,3.585,0,0,0,111.179-84.824Z" transform="translate(-106.945 87.898)" fill="#fff"/>
      <path id="Path_663" data-name="Path 663" d="M139.267-84.9a.869.869,0,0,0-.038,1.338c.238.225.438.275,1.075.275s.825-.05,1.075-.313a1.03,1.03,0,0,0,.313-.625,1.03,1.03,0,0,0-.313-.625A1.954,1.954,0,0,0,139.267-84.9Z" transform="translate(-131.558 88.057)" fill="#fff"/>
      <path id="Path_664" data-name="Path 664" d="M167.313-84.845a1.03,1.03,0,0,0-.313.625,1.03,1.03,0,0,0,.313.625c.25.263.413.313,1.1.313.663,0,.838-.05,1.063-.288a.88.88,0,0,0-.05-1.325A1.954,1.954,0,0,0,167.313-84.845Z" transform="translate(-156.115 88.057)" fill="#fff"/>
      <path id="Path_665" data-name="Path 665" d="M196.26-84.737a.935.935,0,0,0-.075,1.363c.2.2.413.25,1.05.25,1.013,0,1.375-.25,1.375-.938s-.375-.938-1.3-.938A1.5,1.5,0,0,0,196.26-84.737Z" transform="translate(-181.424 87.899)" fill="#fff"/>
      <path id="Path_666" data-name="Path 666" d="M227.313-84.845a1.03,1.03,0,0,0-.313.625,1.03,1.03,0,0,0,.313.625c.25.263.413.313,1.1.313.663,0,.838-.05,1.063-.288a.88.88,0,0,0-.05-1.325A1.954,1.954,0,0,0,227.313-84.845Z" transform="translate(-208.613 88.057)" fill="#fff"/>
    </g>
  </g>
</svg>