<svg id="farud-icon" xmlns="http://www.w3.org/2000/svg" width="371.286" height="380.978" viewBox="0 0 371.286 380.978">
  <g id="Group_22" data-name="Group 22">
    <path id="Path_9" data-name="Path 9" d="M241.705,431.489a20.046,20.046,0,0,1-14.265-5.907L70.266,268.408a20.039,20.039,0,0,1-5.909-14.265V237.552a20.043,20.043,0,0,1,5.911-14.268L227.438,66.113A20.047,20.047,0,0,1,241.705,60.2H258.3a20.044,20.044,0,0,1,14.265,5.908L429.734,223.286a20.044,20.044,0,0,1,5.909,14.266v16.591a20.036,20.036,0,0,1-5.911,14.266L272.562,425.581a20.052,20.052,0,0,1-14.267,5.908Z" transform="translate(-64.357 -50.511)" fill="#929497" opacity="0.5" style="mix-blend-mode: multiply;isolation: isolate"/>
    <g id="Group_21" data-name="Group 21">
      <path id="Path_10" data-name="Path 10" d="M241.705,421.8a20.047,20.047,0,0,1-14.265-5.908L70.266,258.715a20.043,20.043,0,0,1-5.909-14.266V227.858a20.039,20.039,0,0,1,5.911-14.267L227.438,56.419a20.046,20.046,0,0,1,14.267-5.908H258.3a20.044,20.044,0,0,1,14.265,5.907L429.734,213.592a20.044,20.044,0,0,1,5.909,14.266v16.591a20.04,20.04,0,0,1-5.911,14.267L272.562,415.887A20.053,20.053,0,0,1,258.3,421.8Z" transform="translate(-64.357 -50.511)" fill="#770d12"/>
      <path id="Path_11" data-name="Path 11" d="M241.705,419.8a18.057,18.057,0,0,1-12.851-5.321L71.68,257.3a18.052,18.052,0,0,1-5.323-12.851V227.858a18.056,18.056,0,0,1,5.325-12.853L228.852,57.833a18.064,18.064,0,0,1,12.853-5.323H258.3a18.055,18.055,0,0,1,12.851,5.323L428.319,215.006a18.056,18.056,0,0,1,5.324,12.852v16.591a18.044,18.044,0,0,1-5.325,12.851L271.148,414.473A18.07,18.07,0,0,1,258.3,419.8Z" transform="translate(-64.357 -50.511)" fill="#fff"/>
      <path id="Path_12" data-name="Path 12" d="M405.8,222.7,263.451,80.358a8.4,8.4,0,0,0-5.938-2.46H242.487a8.4,8.4,0,0,0-5.939,2.46L94.205,222.7a8.4,8.4,0,0,0-2.46,5.938v15.026a8.4,8.4,0,0,0,2.46,5.938L236.548,391.948a8.4,8.4,0,0,0,5.939,2.46h15.026a8.4,8.4,0,0,0,5.938-2.46L405.8,249.6a8.4,8.4,0,0,0,2.46-5.939V228.64A8.4,8.4,0,0,0,405.8,222.7Z" transform="translate(-64.357 -50.511)"/>
      <g id="Group_3" data-name="Group 3" transform="translate(105.642 145.195)">
        <text id="Fraud" transform="translate(80 42)" fill="#fff" font-size="42.9" font-family="Montserrat-Bold, Montserrat" font-weight="700"><tspan x="-80.202" y="0">FRAUD</tspan></text>
        <text id="ALERT" transform="translate(80 65.705)" fill="#fff" font-size="23.891" font-family="Montserrat-Bold, Montserrat" font-weight="700"><tspan x="-40.424" y="0">ALERT</tspan></text>
        <text id="_" data-name="!" transform="translate(80 167)" fill="#fff" font-size="72.9" font-family="Montserrat-Bold, Montserrat" font-weight="700"><tspan x="-10.534" y="0">!</tspan></text>
      </g>
      <g id="Group_4" data-name="Group 4" transform="translate(126.643 88.329)">
        <text id="CAUTION" transform="translate(59 23)" fill="#fff" font-size="24" font-family="Montserrat-ExtraBold, Montserrat" font-weight="800"><tspan x="-58.776" y="0">CAUTION</tspan></text>
      </g>
      <g id="Group_7" data-name="Group 7" transform="translate(42.319 42.318)">
        <g id="Group_5" data-name="Group 5" transform="translate(139.046)">
          <circle id="Ellipse_1" data-name="Ellipse 1" cx="4.278" cy="4.278" r="4.278"/>
          <path id="Path_13" data-name="Path 13" d="M254.278,375.2A4.278,4.278,0,1,1,250,370.92,4.278,4.278,0,0,1,254.278,375.2Z" transform="translate(-245.722 -92.829)"/>
        </g>
        <g id="Group_6" data-name="Group 6" transform="translate(0 139.046)">
          <circle id="Ellipse_2" data-name="Ellipse 2" cx="4.278" cy="4.278" r="4.278" transform="translate(278.091)"/>
          <circle id="Ellipse_3" data-name="Ellipse 3" cx="4.278" cy="4.278" r="4.278" transform="translate(0 0)"/>
        </g>
      </g>
      <g id="Group_11" data-name="Group 11" transform="translate(57.982 178.828)">
        <g id="Group_10" data-name="Group 10">
          <g id="Group_8" data-name="Group 8">
            <path id="Path_14" data-name="Path 14" d="M130.849,238.812a3.154,3.154,0,0,1-4.356-4.356l-2.616-2.616a6.814,6.814,0,0,0,9.588,9.589Z" transform="translate(-122.339 -229.339)" fill="#fff"/>
            <path id="Path_15" data-name="Path 15" d="M124.84,230.878l2.616,2.616a3.154,3.154,0,0,1,4.356,4.356l2.616,2.616a6.814,6.814,0,0,0-9.588-9.588Z" transform="translate(-122.339 -229.339)" fill="#fff"/>
          </g>
          <g id="Group_9" data-name="Group 9" transform="translate(241.695)">
            <path id="Path_16" data-name="Path 16" d="M372.544,238.812a3.154,3.154,0,0,1-4.356-4.356l-2.616-2.616a6.814,6.814,0,0,0,9.588,9.589Z" transform="translate(-364.033 -229.339)" fill="#fff"/>
            <path id="Path_17" data-name="Path 17" d="M366.534,230.878l2.616,2.616a3.154,3.154,0,0,1,4.356,4.356l2.617,2.616a6.814,6.814,0,0,0-9.589-9.588Z" transform="translate(-364.033 -229.339)" fill="#fff"/>
          </g>
        </g>
      </g>
      <g id="Group_12" data-name="Group 12" transform="translate(36.143 137.285)">
        <rect id="Rectangle_2" data-name="Rectangle 2" width="299" height="5.5" fill="#fff"/>
        <rect id="Rectangle_3" data-name="Rectangle 3" width="299" height="5.5" transform="translate(0 91.214)" fill="#fff"/>
      </g>
      <path id="Path_30" data-name="Path 30" d="M257.608,77.923a6.436,6.436,0,0,1,4.581,1.9L406.332,223.964a6.44,6.44,0,0,1,1.9,4.581v15.216a6.436,6.436,0,0,1-1.9,4.581L262.189,392.485a6.434,6.434,0,0,1-4.581,1.9H242.392a6.432,6.432,0,0,1-4.581-1.9L93.668,248.342a6.435,6.435,0,0,1-1.9-4.581V228.545a6.436,6.436,0,0,1,1.9-4.581L237.811,79.821a6.433,6.433,0,0,1,4.581-1.9h15.216m0-2.025H242.392a8.506,8.506,0,0,0-6.014,2.491L92.236,222.532a8.5,8.5,0,0,0-2.491,6.013v15.216a8.5,8.5,0,0,0,2.491,6.013L236.378,393.917a8.506,8.506,0,0,0,6.014,2.491h15.216a8.5,8.5,0,0,0,6.013-2.491L407.764,249.775a8.506,8.506,0,0,0,2.491-6.014V228.545a8.5,8.5,0,0,0-2.491-6.013L263.621,78.389a8.5,8.5,0,0,0-6.013-2.491Z" transform="translate(-64.357 -50.511)" fill="#c72930"/>
      <g id="Group_20" data-name="Group 20" transform="translate(9.5 9.499)">
        <path id="Path_31" data-name="Path 31" d="M419.481,248.461l-65.74,65.74a2.5,2.5,0,0,0,0,3.535h0a2.5,2.5,0,0,0,3.535,0l65.741-65.741a10.457,10.457,0,0,0,3.126-7.546V227.858a10.461,10.461,0,0,0-3.127-7.548l-65.74-65.74a2.5,2.5,0,0,0-3.535,0h0a2.5,2.5,0,0,0,0,3.535l65.74,65.74a5.674,5.674,0,0,1,1.662,4.012v16.592A5.674,5.674,0,0,1,419.481,248.461Z" transform="translate(-73.857 -60.01)"/>
        <path id="Path_32" data-name="Path 32" d="M80.519,248.461a5.487,5.487,0,0,1-1.662-4.012V227.858a5.488,5.488,0,0,1,1.663-4.013l65.739-65.74a2.5,2.5,0,0,0,0-3.536h0a2.5,2.5,0,0,0-3.535,0l-65.739,65.74a10.463,10.463,0,0,0-3.128,7.549v16.591A10.464,10.464,0,0,0,76.984,252l65.739,65.74a2.5,2.5,0,0,0,3.536,0h0a2.5,2.5,0,0,0,0-3.536Z" transform="translate(-73.857 -60.01)"/>
        <path id="Path_33" data-name="Path 33" d="M168.416,132.412a2.5,2.5,0,0,0,3.536,0l65.739-65.74a5.492,5.492,0,0,1,4.014-1.662H258.3a5.5,5.5,0,0,1,4.014,1.662l65.739,65.74a2.5,2.5,0,0,0,3.535,0h0a2.5,2.5,0,0,0,0-3.535l-65.739-65.74A10.465,10.465,0,0,0,258.3,60.01h-16.59a10.462,10.462,0,0,0-7.549,3.127l-65.74,65.74a2.5,2.5,0,0,0,0,3.535Z" transform="translate(-73.857 -60.01)"/>
        <path id="Path_34" data-name="Path 34" d="M331.583,339.894a2.5,2.5,0,0,0-3.535,0l-65.739,65.739A5.5,5.5,0,0,1,258.3,407.3h-16.59a5.5,5.5,0,0,1-4.014-1.661l-65.74-65.74a2.5,2.5,0,0,0-3.535,0h0a2.5,2.5,0,0,0,0,3.536l65.74,65.74a10.475,10.475,0,0,0,7.549,3.125H258.3a10.475,10.475,0,0,0,7.549-3.125l65.74-65.741a2.5,2.5,0,0,0,0-3.535Z" transform="translate(-73.857 -60.01)"/>
      </g>
    </g>
  </g>
</svg>
