<svg xmlns="http://www.w3.org/2000/svg" id="fuel-pump" width="57.979" height="58.03" viewBox="0 0 57.979 58.03" class="svg replaced-svg">
  <path id="Path_41244" data-name="Path 41244" d="M20.417-511.728a2.806,2.806,0,0,0-1.383,1.394c-.113.295-.147,1.939-.147,8.571v8.2l.283.578a2.917,2.917,0,0,0,2.857,1.508h.6v3.832l-1.281.034c-1.2.045-1.315.068-1.7.363a2.557,2.557,0,0,0-.555.567,17.773,17.773,0,0,0-.2,3.469L18.83-480l-.476.136a4.973,4.973,0,0,0-2.845,2.528l-.306.646-.057,5.838c-.057,5.759-.057,5.85-.306,6.315a2.442,2.442,0,0,1-4.353.011c-.2-.408-.215-.8-.215-9.5v-9.069h.714a1.872,1.872,0,0,0,1.746-.782c.261-.374.261-.442.261-3.8,0-3.174-.011-3.435-.227-3.775a1.513,1.513,0,0,0-.442-.476c-.2-.113-.227-.272-.261-2.812l-.034-2.7-.363-.782a8.936,8.936,0,0,0-1.973-2.4,16.648,16.648,0,0,0-1.973-1.791,1.748,1.748,0,0,0-1.769.136,6.8,6.8,0,0,0-2.041,2.279c-.249.828-.091,1.168,1.19,2.505,1.474,1.542,1.542,1.723,1.542,3.866,0,1.5-.011,1.553-.272,1.723-.59.4-.635.692-.635,4.274,0,3.639.011,3.718.7,4.206a2.114,2.114,0,0,0,1.224.329l.85.057.057,9.3.057,9.3.317.646a4.579,4.579,0,0,0,2.211,2.029,4.41,4.41,0,0,0,3.027-.011,4.664,4.664,0,0,0,2.335-2.324c.261-.68.261-.7.329-6.541l.057-5.85.34-.487a3.346,3.346,0,0,1,1.394-1.179c.249-.068.249-.068.249,1.111,0,1.032.034,1.224.249,1.553.51.748.76.85,2.2.884l1.292.045v11.484l-.521.272a2.861,2.861,0,0,0-1.406,2.755v.657H1.349l-.385.261a2.912,2.912,0,0,0-.646.646c-.249.374-.261.476-.227,1.893.034,1.621.113,1.825.816,2.347.295.227.487.238,3.616.272a17.691,17.691,0,0,0,3.56-.1.875.875,0,0,0,.045-1.451,20.377,20.377,0,0,0-3.288-.125H1.768V-457.7H56.411v2.041H33.636c-12.527,0-22.866.034-22.968.068a1.023,1.023,0,0,0-.34.4.812.812,0,0,0,.249,1.043c.215.181,1.428.193,23.308.17l23.081-.034.306-.238c.726-.533.782-.714.782-2.426,0-1.746-.068-1.927-.85-2.471-.351-.238-.476-.249-2.562-.249h-2.2v-.85a4.132,4.132,0,0,0-.159-1.236,3.368,3.368,0,0,0-1.315-1.428l-.34-.136v-28.4l.884-.068a2.751,2.751,0,0,0,2.585-1.553c.2-.374.215-.839.249-8.434.034-8.979.045-8.843-.714-9.625-.862-.884.272-.816-13.071-.85L28.625-512l-.272.272a.756.756,0,0,0,.011,1.19c.306.238.34.238,11.96.238H51.978l.317.272.317.272.034,7.834c.034,8.593.045,8.412-.635,8.593-.17.057-7.176.091-15.577.091H21.177l-.295-.272-.295-.272v-7.913c0-4.353.034-7.992.068-8.094.17-.431.624-.51,2.936-.51,2.211,0,2.222,0,2.494-.283a.934.934,0,0,0,.283-.567.933.933,0,0,0-.283-.567C25.813-512,25.813-512,23.4-512,21.109-512,20.95-511.989,20.417-511.728ZM8.468-499.45a14.277,14.277,0,0,1,1.632,1.9c.2.4.227.737.261,2.857l.034,2.415H8.366l-.034-1.791-.045-1.791-.419-.85a6.387,6.387,0,0,0-1.383-1.8l-.975-.964.7-.7a5.094,5.094,0,0,1,.782-.714C7.029-500.89,7.7-500.244,8.468-499.45Zm40.461,18.343v10.373h-24.6v-20.746h24.6ZM9.591-487.683v2.891H7.437v-5.782H9.591Zm13.014,6.6-.034,4.739-.986.034-1,.034v-9.534h2.041Zm26.21,14.976v2.823l-1.27.068c-.7.045-6.212.079-12.244.079H24.328v-5.782H48.816Zm1.644,4.954c.249.238.283.374.283,1.02v.737H22.378l.045-.748c.045-.658.091-.794.363-1.02l.306-.272H50.187Z" transform="translate(-0.077 512)" fill="#f7fcf9"/>
  <path id="Path_41245" data-name="Path 41245" d="M315.816-229.671c-.76.476-.816.68-.816,3.4s.057,2.936.816,3.4c.351.215.578.227,4.693.227,4.3,0,4.319,0,4.693-.261.816-.555.85-.646.884-3.072.045-2.505-.023-2.914-.6-3.469l-.408-.4-4.444-.034C316.36-229.9,316.179-229.9,315.816-229.671Zm8.48,3.4v1.927h-7.6V-228.2h7.6Z" transform="translate(-279.298 261.867)" fill="#f7fcf9"/>
  <path id="Path_41246" data-name="Path 41246" d="M210.327-479.469l2.9,0,12.971.023.617.435a2.985,2.985,0,0,1,.874,1.088c.27.605.289.992.289,5.791,0,4.866,0,5.173-.322,5.836a2.766,2.766,0,0,1-.972,1.111l-.627.39H213.115c-6.315,0-9.485,0-11.141-.03-1.719-.031-1.994-.09-2.392-.328a3.052,3.052,0,0,1-.926-.876l-.407-.583v-5.78c0-2.633,0-3.955.075-4.715a2.155,2.155,0,0,1,.774-1.663l.008-.007a2.93,2.93,0,0,1,.8-.532l.036-.015c.211-.079.363-.136,7.933-.146Zm15.323,1.753-12.424-.022c-1.885,0-3.577,0-5.347,0-5.581.007-7.014.048-7.38.069a1.2,1.2,0,0,0-.185.132l-.043.041a1.37,1.37,0,0,0-.149.148,1.378,1.378,0,0,0-.078.416c-.067.675-.067,1.968-.067,4.544v5.237l.127.184a1.425,1.425,0,0,0,.349.326l.012.007.011.007c.425.108,3.076.108,12.638.108h12.45l.21-.131a1.076,1.076,0,0,0,.318-.376l.008-.017c.137-.28.151-.755.151-5.086,0-4.062-.021-4.823-.14-5.089l0-.008a1.341,1.341,0,0,0-.3-.379Zm-21.959,3.771h8.36v5.608h-8.267l-.092-3.78Zm6.632,1.728h-4.9v.089l.051,2.062h4.853Z" transform="translate(-176.563 482.378)" fill="#f7fcf9"/>
  <rect id="Rectangle_268" data-name="Rectangle 268" width="8.485" height="1.414" rx="0.707" transform="translate(40.161 7.086)" fill="#f7fcf9"/>
  <rect id="Rectangle_269" data-name="Rectangle 269" width="5.091" height="1.414" rx="0.707" transform="translate(43.555 10.479)" fill="#f7fcf9"/>
</svg>