<svg xmlns="http://www.w3.org/2000/svg" width="66.438" height="58" viewBox="0 0 66.438 58" class="svg replaced-svg">
  <g id="Group_5064" data-name="Group 5064" transform="translate(-5676 6673)">
    <g id="Group_4876" data-name="Group 4876" transform="translate(5676 -6673)">
      <g id="Group_4875" data-name="Group 4875">
        <g id="Group_4874" data-name="Group 4874">
          <g id="Group_4873" data-name="Group 4873">
            <g id="XMLID_860_" transform="translate(20.168 21.296)">
              <path id="XMLID_853_" d="M1.109,11.43H-1V0H1.109Z" transform="translate(1 24.219)" fill="#fff"/>
              <path id="XMLID_852_" d="M49.351,62.7H47.242V29.321s0-.008,0-.012H32.6V27.2H47.23a2.1,2.1,0,0,1,2.121,2.121Z" transform="translate(-18.134 -27.2)" fill="#fff"/>
              <path id="XMLID_863_" d="M7.467,1.109H0V-1H7.467Z" transform="translate(11.875 4.2)" fill="#fff"/>
              <rect id="XMLID_862_" width="10.113" height="3.622" transform="translate(17.763 31.57)" fill="#fff"/>
              <path id="XMLID_861_" d="M48.769,32V59.127H25.3v1.067H49.836V32Z" transform="translate(-21.959 -25.154)" fill="#fff"/>
            </g>
            <path id="XMLID_857_" d="M1.4-.5A1.9,1.9,0,1,1-.5,1.4,1.9,1.9,0,0,1,1.4-.5Zm0,2.743A.844.844,0,1,0,.555,1.4.845.845,0,0,0,1.4,2.243Z" transform="translate(19.468 3.354)" fill="#fff"/>
            <path id="XMLID_864_" d="M2.022-.75A2.772,2.772,0,1,1-.75,2.022,2.775,2.775,0,0,1,2.022-.75Zm0,3.962a1.19,1.19,0,1,0-1.19-1.19A1.192,1.192,0,0,0,2.022,3.212Z" transform="translate(44.279 0.75)" fill="#fff"/>
            <path id="XMLID_859_" d="M1.4-.5A1.9,1.9,0,1,1-.5,1.4,1.9,1.9,0,0,1,1.4-.5Zm0,2.743A.844.844,0,1,0,.555,1.4.845.845,0,0,0,1.4,2.243Z" transform="translate(56.351 10.7)" fill="#fff"/>
            <path id="XMLID_858_" d="M2.479-.75A3.229,3.229,0,1,1-.75,2.479,3.233,3.233,0,0,1,2.479-.75Zm0,4.877A1.647,1.647,0,1,0,.832,2.479,1.649,1.649,0,0,0,2.479,4.127Z" transform="translate(32.372 9.644)" fill="#fff"/>
            <path id="XMLID_854_" d="M26.666,54.932A17.474,17.474,0,0,1,19.8,53.538a17.807,17.807,0,0,1-9.407-9.407,17.607,17.607,0,0,1,0-13.73A17.807,17.807,0,0,1,19.8,20.993a17.607,17.607,0,0,1,13.73,0A17.807,17.807,0,0,1,42.938,30.4,17.869,17.869,0,0,1,43,44.085l1.9,9.868-9.18-1.559A17.29,17.29,0,0,1,26.666,54.932Zm0-33.223a15.557,15.557,0,0,0,0,31.114A15.174,15.174,0,0,0,34.932,50.4l.345-.223,6.981,1.186-1.449-7.51.127-.3a15.615,15.615,0,0,0-14.27-21.847Z" transform="translate(-9 -9.104)" fill="#fff"/>
            <path id="XMLID_851_" d="M43.89,1.109H0V-1H43.89Z" transform="translate(12.847 56.891)" fill="#fff"/>
            <path id="XMLID_838_" d="M14.021,1.109H0V-1H14.021Z" transform="translate(40.274 12.033)" fill="#fff"/>
            <path id="XMLID_855_" d="M21.64,1.109H0V-1H21.64Z" transform="translate(44.796 17.678)" fill="#fff"/>
            <path id="XMLID_856_" d="M7.62,1.109H0V-1H7.62Z" transform="translate(34.754 17.678)" fill="#fff"/>
            <path id="Path_41829" data-name="Path 41829" d="M177.374,136.452a.429.429,0,0,0-.071-.461l-5.115-5.755a5.041,5.041,0,0,0,4.169-3.627h1.59a.429.429,0,0,0,.429-.429v-1.836a.429.429,0,0,0-.429-.429h-1.59a4.9,4.9,0,0,0-.391-.977h1.981a.429.429,0,0,0,.429-.429v-1.836a.429.429,0,0,0-.429-.429h-.918a.429.429,0,0,0,0,.859h.489v.977h-2.333a.429.429,0,0,0-.343.688,4.11,4.11,0,0,1,.756,1.663.429.429,0,0,0,.421.344h1.5v.977h-1.5a.429.429,0,0,0-.421.344,4.173,4.173,0,0,1-4.076,3.328h-.251a.429.429,0,0,0-.321.715l5.076,5.71h-1.307l-5.521-6.212v-1.19h2.324a3.189,3.189,0,0,0,3-2.121.429.429,0,0,0-.4-.573H169.2v-.977h4.917a.429.429,0,0,0,.4-.573,3.189,3.189,0,0,0-3-2.121H169.2V121.1h6a.429.429,0,1,0,0-.859h-6.425a.429.429,0,0,0-.429.429v1.836a.429.429,0,0,0,.429.429h2.754a2.326,2.326,0,0,1,1.89.977h-4.643a.429.429,0,0,0-.429.429v1.836a.429.429,0,0,0,.429.429h4.643a2.326,2.326,0,0,1-1.89.977h-2.754a.429.429,0,0,0-.429.429V129.8a.429.429,0,0,0,.108.285l5.758,6.478a.429.429,0,0,0,.321.144h2.456A.429.429,0,0,0,177.374,136.452Z" transform="translate(-155.357 -99.6)" fill="#fff"/>
            <path id="Path_41829_-_Outline" data-name="Path 41829 - Outline" d="M176.988,136.816h-2.456a.535.535,0,0,1-.4-.18l-5.758-6.478a.534.534,0,0,1-.135-.355v-1.783a.535.535,0,0,1,.535-.535h2.754a2.22,2.22,0,0,0,1.672-.766h-4.426a.535.535,0,0,1-.535-.535v-1.836a.535.535,0,0,1,.535-.535H173.2a2.22,2.22,0,0,0-1.672-.766h-2.754a.535.535,0,0,1-.535-.535v-1.836a.535.535,0,0,1,.535-.535H175.2a.535.535,0,1,1,0,1.07h-5.89v.766h2.219a3.3,3.3,0,0,1,3.1,2.192.535.535,0,0,1-.5.714h-4.812v.766h4.812a.535.535,0,0,1,.5.714,3.3,3.3,0,0,1-3.1,2.192h-2.219V129.6l5.463,6.146H175.8l-4.92-5.535a.535.535,0,0,1,.4-.89h.251a4.067,4.067,0,0,0,3.973-3.243.537.537,0,0,1,.524-.428h1.393v-.766h-1.393a.537.537,0,0,1-.524-.428,4.006,4.006,0,0,0-.737-1.621.535.535,0,0,1,.427-.857h2.227v-.766h-.383a.535.535,0,0,1,0-1.07h.918a.535.535,0,0,1,.535.535v1.836a.535.535,0,0,1-.535.535h-1.809a5.021,5.021,0,0,1,.3.766h1.511a.535.535,0,0,1,.535.535v1.836a.535.535,0,0,1-.535.535h-1.511a5.122,5.122,0,0,1-4.041,3.6l4.987,5.61a.535.535,0,0,1-.4.89Zm-8.214-9.12a.324.324,0,0,0-.324.324V129.8a.323.323,0,0,0,.082.215l5.758,6.478a.324.324,0,0,0,.242.109h2.456a.324.324,0,0,0,.242-.539l-5.247-5.9.2-.026a4.912,4.912,0,0,0,4.081-3.551l.022-.077h1.67a.324.324,0,0,0,.324-.324v-1.836a.324.324,0,0,0-.324-.324h-1.67l-.022-.077a4.811,4.811,0,0,0-.382-.956l-.082-.155h2.156a.324.324,0,0,0,.324-.324v-1.836a.324.324,0,0,0-.324-.324h-.918a.324.324,0,0,0,0,.648h.594v1.188H175.19a.324.324,0,0,0-.259.519,4.214,4.214,0,0,1,.775,1.705.325.325,0,0,0,.317.259h1.6v1.188h-1.6a.325.325,0,0,0-.317.259,4.279,4.279,0,0,1-4.179,3.412h-.251a.324.324,0,0,0-.242.539l5.232,5.886h-1.589l-5.58-6.277v-1.336h2.43a3.084,3.084,0,0,0,2.9-2.051.324.324,0,0,0-.305-.432H169.1v-1.188h5.023a.324.324,0,0,0,.305-.432,3.084,3.084,0,0,0-2.9-2.051H169.1V121h6.1a.324.324,0,1,0,0-.648h-6.425a.324.324,0,0,0-.324.324v1.836a.324.324,0,0,0,.324.324h2.754a2.433,2.433,0,0,1,1.976,1.021l.119.167h-4.848a.324.324,0,0,0-.324.324v1.836a.324.324,0,0,0,.324.324h4.848l-.119.167a2.433,2.433,0,0,1-1.976,1.021Z" transform="translate(-155.361 -99.606)" fill="#fff"/>
          </g>
        </g>
      </g>
    </g>
  </g>
</svg>