<svg xmlns="http://www.w3.org/2000/svg" width="22.076" height="22.097" viewBox="0 0 22.076 22.097">
  <g id="Group_11165" data-name="Group 11165" transform="translate(22495.197 9992.2)">
    <path id="Path_42050" data-name="Path 42050" d="M122.153,215.238a5.931,5.931,0,0,1-5.923-5.923.434.434,0,1,0-.868,0,6.787,6.787,0,0,0,6.791,6.791.434.434,0,1,0,0-.868Z" transform="translate(-22608.119 -10193.281)" fill="#e8c113" stroke="#e8c113" stroke-width="0.3" stroke-dasharray="100"/>
    <path id="Path_42051" data-name="Path 42051" d="M92.106,20.959l-6.7-6.7a8.492,8.492,0,1,0-.607.608l6.7,6.7a.42.42,0,0,0,.608,0,.419.419,0,0,0,0-.607ZM79.088,16.186a7.659,7.659,0,1,1,7.659-7.659A7.658,7.658,0,0,1,79.088,16.186Z" transform="translate(-22565.559 -9992)" fill="#178b49" stroke="#168b48" stroke-width="0.4"/>
  </g>
</svg>
