<svg xmlns="http://www.w3.org/2000/svg" width="35.412" height="58.03" viewBox="0 0 35.412 58.03" class="svg replaced-svg">
  <g id="_Wild_Bean_Café" data-name=" Wild Bean Café" transform="translate(-55.467 -13.222)">
    <g id="Group_4837" data-name="Group 4837" transform="translate(67.988 46.575)">
      <g id="Group_4829" data-name="Group 4829" transform="translate(0)">
        <path id="Path_41941" data-name="Path 41941" d="M123.472,154.281c-.112,0-.223,0-.334,0a.836.836,0,0,1,.014-1.673h.016c1.884.032,3.369.061,3.78-3.737.451-4.161,3.46-4.967,4.992-4.814a.836.836,0,0,1-.162,1.665c-.29-.022-2.8-.13-3.173,3.331C128.1,153.735,125.83,154.281,123.472,154.281Z" transform="translate(-122.319 -144.036)" fill="#fff"/>
      </g>
    </g>
    <g id="Group_4845" data-name="Group 4845" transform="translate(55.466 13.222)">
      <g id="Group_4847" data-name="Group 4847" transform="translate(0 10.911)">
        <g id="Group_4838" data-name="Group 4838" transform="translate(0 5.003)">
          <path id="Path_41949" data-name="Path 41949" d="M87.765,57.16H58.581a3.115,3.115,0,0,1,0-6.23H87.765a3.115,3.115,0,0,1,0,6.23ZM58.581,52.629a1.416,1.416,0,1,0,0,2.832H87.765a1.416,1.416,0,1,0,0-2.832Z" transform="translate(-55.466 -50.93)" fill="#fff"/>
        </g>
        <g id="Group_4839" data-name="Group 4839" transform="translate(2.266)">
          <path id="Path_41950" data-name="Path 41950" d="M97.594,30.924H68.41a.85.85,0,0,1-.832-1.019c.047-.232,1.2-5.683,4.791-5.683H82.46a5.618,5.618,0,0,1,3.9,2.171h8.993c2.137,0,2.946,2.258,3.088,3.592a.849.849,0,0,1-.845.939Zm-28.061-1.7H96.515c-.2-.548-.558-1.133-1.163-1.133h-9.4a.85.85,0,0,1-.692-.356c-.363-.5-1.574-1.815-2.8-1.815H72.369C70.874,25.921,69.961,27.946,69.533,29.225Z" transform="translate(-67.561 -24.222)" fill="#fff"/>
        </g>
        <g id="Group_4840" data-name="Group 4840" transform="translate(10.736 20.715)">
          <path id="Path_41951" data-name="Path 41951" d="M117.6,148.474a4.817,4.817,0,0,1-3.482-1.335c-2.239-2.241-1.595-6.527,1.435-9.556s7.316-3.673,9.555-1.434a5.114,5.114,0,0,1,1.25,4.625,9.376,9.376,0,0,1-2.684,4.931h0A8.889,8.889,0,0,1,117.6,148.474Zm4.009-11.987a7.237,7.237,0,0,0-4.854,2.3c-2.328,2.327-2.985,5.6-1.435,7.153s4.827.893,7.153-1.434h0a7.667,7.667,0,0,0,2.211-4.017,3.473,3.473,0,0,0-.777-3.136A3.166,3.166,0,0,0,121.608,136.487Z" transform="translate(-112.782 -134.814)" fill="#fff"/>
        </g>
        <g id="Group_4841" data-name="Group 4841" transform="translate(12.347 22.411)">
          <path id="Path_41952" data-name="Path 41952" d="M122.236,154.179a.85.85,0,0,1-.026-1.7l.159,0c2.039-.06,3.269-.1,3.677-3.759.466-4.182,3.521-4.986,5.072-4.83a.849.849,0,0,1-.167,1.691c-.293-.025-2.831-.139-3.217,3.327-.571,5.128-3.2,5.206-5.316,5.269l-.157.005Z" transform="translate(-121.387 -143.869)" fill="#fff"/>
        </g>
        <g id="Group_4842" data-name="Group 4842" transform="translate(5.05 35.774)">
          <path id="Path_41953" data-name="Path 41953" d="M105.979,226.557h-2.764a.849.849,0,1,1,0-1.7h1.991l.752-7.946H84.212l.752,7.946H99.3a.849.849,0,1,1,0,1.7h-15.1a.849.849,0,0,1-.846-.769l-.913-9.645a.85.85,0,0,1,.845-.93h23.614a.85.85,0,0,1,.845.93l-.913,9.645A.849.849,0,0,1,105.979,226.557Z" transform="translate(-82.429 -215.213)" fill="#fff"/>
        </g>
        <g id="Group_4843" data-name="Group 4843" transform="translate(2.566 9.533)">
          <path id="Path_41954" data-name="Path 41954" d="M97.855,84.653h-27.1a.849.849,0,0,1-.846-.769l-.742-7.834a.85.85,0,0,1,.845-.93H98.6a.85.85,0,0,1,.846.93L98.7,83.883A.849.849,0,0,1,97.855,84.653Zm-26.327-1.7H97.082l.581-6.135H70.947Z" transform="translate(-69.164 -75.119)" fill="#fff"/>
        </g>
        <g id="Group_4844" data-name="Group 4844" transform="translate(2.439 17.368)">
          <path id="Path_41955" data-name="Path 41955" d="M96.35,137.052H71.039a.849.849,0,0,1-.846-.772l-1.052-11.4a.849.849,0,1,1,1.692-.156l.981,10.626H95.575l1.542-16.707H70.271l.2,2.162a.85.85,0,0,1-1.692.156l-.285-3.089a.849.849,0,0,1,.846-.927H98.049a.849.849,0,0,1,.846.927L97.2,136.28A.849.849,0,0,1,96.35,137.052Z" transform="translate(-68.49 -116.947)" fill="#fff"/>
        </g>
      </g>
      <g id="Group_4846" data-name="Group 4846" transform="translate(5.803 0)">
        <path id="Path_41965" data-name="Path 41965" d="M22.978,14.931a.994.994,0,0,1-.108-.006A.984.984,0,0,1,22,13.844h0A8.949,8.949,0,0,0,21.1,9.425a.984.984,0,1,1,1.759-.882,10.809,10.809,0,0,1,1.091,5.511A.984.984,0,0,1,22.978,14.931Z" transform="translate(-21 -6.014)" fill="#fff"/>
        <path id="Path_41966" data-name="Path 41966" d="M40.982,14.931a.984.984,0,0,1-.977-.877A10.809,10.809,0,0,1,41.1,8.543a.984.984,0,1,1,1.759.882,8.816,8.816,0,0,0-.894,4.416.984.984,0,0,1-.871,1.084A1,1,0,0,1,40.982,14.931Z" transform="translate(-19.152 -6.014)" fill="#fff"/>
        <path id="Path_41967" data-name="Path 41967" d="M28.466,12.931a.994.994,0,0,1-.108-.006.984.984,0,0,1-.872-1.081h0a8.949,8.949,0,0,0-.894-4.419.984.984,0,0,1,1.759-.882,10.809,10.809,0,0,1,1.091,5.511A.984.984,0,0,1,28.466,12.931Z" transform="translate(-20.047 -6)" fill="#fff"/>
        <path id="Path_41968" data-name="Path 41968" d="M35.494,12.931a.984.984,0,0,1-.977-.877,10.809,10.809,0,0,1,1.091-5.511.984.984,0,0,1,1.759.882,8.816,8.816,0,0,0-.894,4.416.984.984,0,0,1-.872,1.084A1,1,0,0,1,35.494,12.931Z" transform="translate(-20.105 -6)" fill="#fff"/>
      </g>
    </g>
  </g>
</svg>