<svg xmlns="http://www.w3.org/2000/svg" width="56.717" height="56.871" viewBox="0 0 56.717 56.871" class="svg replaced-svg">
  <g id="Castrol_Default" transform="translate(-36.872 475.325)">
    <path id="Path_44358" data-name="Path 44358" d="M39.3-474.912a9.713,9.713,0,0,0-.153,2.812c0,2.991-.026,2.914,1.022,2.914H40.7l-.038.6c-.038.6-.051.613-.55.69a3.4,3.4,0,0,0-2.569,1.8l-.371.677-.038,21.777c-.026,19.5-.013,21.867.166,22.48a3.641,3.641,0,0,0,2.058,2.2c.69.256.869.256,27.132.256,25.445,0,26.442-.013,26.634-.23s.217-.613.217-3.054c0-3.157-.026-3.233-.92-3.233-.435,0-.7-.256-5.649-5.444L81.581-436.1v-7.834c0-6.543-.026-7.86-.179-8.077s-.4-.243-2.837-.307l-2.658-.064-1.24-5.636a57,57,0,0,0-1.585-6.364,7.985,7.985,0,0,0-2.441-2.7c-1.355-.792-.946-.767-9.317-.831l-7.668-.064-.038-.613-.038-.6h.575c.959,0,.971-.026.971-2.991a9.28,9.28,0,0,0-.153-2.735C54.756-475.129,39.522-475.129,39.3-474.912Zm14.416,2.786v1.534H40.557v-3.067H53.72Zm-1.534,3.578v.639H42.09v-1.278h10.1Zm17.279,2.454a5.943,5.943,0,0,1,1.3.869c1.061.984,1.189,1.38,3.016,9.675l1.661,7.579v11.834l-.767.754-.767.754v-6.1l-7.5-7.553c-4.115-4.154-8.333-8.4-9.368-9.445L55.177-459.6h-2.9c-2.735,0-2.914.013-3.157.256s-.256.422-.256,18.122c0,17.126.013,17.892.23,18.084s.959.217,7.387.243l7.144.038.038,1.368.038,1.38H40.109L39.6-420.4c-.818-.46-1.086-1.125-1.086-2.735v-8.09l-.013-4.6.038-1.061.038-1.048-.064-4.665v-8.818l-.013-4.729.038-4.511.038-4.5.307-.422a2.7,2.7,0,0,1,.7-.677c.383-.23.831-.243,14.774-.217l14.378.038ZM63.548-449.16l8.959,9.048v7.029l-3.719,3.9c-3.527,3.719-3.732,3.9-4.243,3.962-.69.089-.856.2-.856.588v.307H50.27V-458.2h4.32Zm-25.036-3.668v0Zm41.663,9.138v7.221H76.853v-14.442h3.323Zm-41.6-2.428-.038-.933-.038-.92Zm-.064,6.71v0Zm46.763,9.215c2.556,2.671,4.614,4.882,4.588,4.92s-5.189.038-11.451.026l-11.4-.038,4.639-4.882,4.626-4.869,2.173-.013,2.185-.013Zm-46.763-2.441v0Zm0,6.774v0Zm53.421,3.9v1.853H65.095v-3.706H91.933Z" fill="#fff"/>
    <path id="Path_44358_-_Outline" data-name="Path 44358 - Outline" d="M47.139-475.325c2.021,0,3.914.014,5.33.041,2.533.047,2.586.1,2.681.2.158.158.227.481.227,2.912a11.265,11.265,0,0,1-.139,2.685c-.181.556-.6.556-1.083.556h-.309l.045.716,8.117.067c7.4.056,7.4.056,8.6.764l.162.1a8.2,8.2,0,0,1,2.541,2.806,56.338,56.338,0,0,1,1.6,6.417l1.2,5.444,2.462.059c2.5.066,2.784.083,3.03.4l.006.008c.191.27.225.9.225,8.221v7.734l5.12,5.359c4.538,4.761,5.136,5.367,5.468,5.367,1.17,0,1.17.4,1.17,3.483,0,2.51-.019,2.94-.283,3.223-.119.132-.292.175-.833.209s-1.529.055-3.2.069c-3.441.03-9.893.034-22.789.034-26.487,0-26.487,0-27.219-.271a3.907,3.907,0,0,1-2.21-2.36c-.188-.645-.2-2.542-.177-22.553l.038-21.841.4-.733a3.67,3.67,0,0,1,2.743-1.928h.007a1.57,1.57,0,0,0,.291-.06,1.98,1.98,0,0,0,.047-.4l.021-.335h-.4c-.411,0-.836,0-1.006-.538a10.524,10.524,0,0,1-.121-2.419v-.207c0-2.512.066-2.827.227-2.988.1-.1.148-.148,2.681-.2C43.225-475.311,45.118-475.325,47.139-475.325Zm7.654.628c-.619-.074-3.791-.128-7.654-.128s-7.033.054-7.654.128a24.623,24.623,0,0,0-.084,2.6v.208a11.175,11.175,0,0,0,.1,2.268c.048.152.06.188.529.188h.936l-.055.867a1.194,1.194,0,0,1-.157.682.86.86,0,0,1-.6.239,3.162,3.162,0,0,0-2.392,1.677l-.339.62-.038,21.714c-.025,18.764-.016,21.82.156,22.41a3.373,3.373,0,0,0,1.907,2.035c.645.239,1.14.239,27.043.239,21.343,0,26.041-.005,26.46-.161.123-.157.142-.809.142-2.874a14.561,14.561,0,0,0-.115-2.732c-.064-.223-.1-.252-.555-.252-.55,0-.714-.155-5.83-5.522L81.331-436v-7.934a78.9,78.9,0,0,0-.135-7.934c-.116-.121-.662-.148-2.638-.2l-2.854-.069-1.282-5.828a52.83,52.83,0,0,0-1.568-6.313,7.694,7.694,0,0,0-2.341-2.586l-.164-.1c-1.08-.639-1.08-.639-8.345-.694l-.682-.005-7.9-.066-.108-1.712h.842c.509,0,.546-.024.607-.211a12.271,12.271,0,0,0,.114-2.53A23.379,23.379,0,0,0,54.793-474.7Zm-14.486.788H53.97v3.567H40.307Zm13.164.5H40.807v2.567H53.47Zm-11.63,3.973h10.6v1.778H41.84Zm10.1.5h-9.6v.778h9.6Zm-4.971,2.2c1.887,0,4.228,0,7.394.009l14.434.038.779.369a6.2,6.2,0,0,1,1.366.911c1.115,1.034,1.259,1.493,3.091,9.8L75.7-448v11.966l-2.034,2v-6.59l-7.429-7.48c-2.261-2.282-4.517-4.555-6.33-6.382-1.437-1.447-2.571-2.591-3.038-3.063l-1.792-1.8h-2.8c-2.562,0-2.813.015-2.98.182-.182.182-.182,2.2-.182,17.946,0,14.125.006,17.565.153,17.9.2.135,2.066.154,7.215.175l7.386.04.091,3.246H40.043l-.569-.327c-.905-.509-1.212-1.254-1.212-2.952v-8.09l-.013-4.605.077-2.107-.02-1.467h-.044v-1.819h.019l-.019-1.373v-5.057l-.013-.3h.013v-3.46l-.013-4.728.077-9.093.352-.484a2.927,2.927,0,0,1,.78-.749C39.81-466.686,39.894-466.737,46.966-466.737Zm21.715.548-14.322-.038c-3.166-.006-5.507-.009-7.393-.009-6.252,0-7,.039-7.252.191a2.464,2.464,0,0,0-.625.6l0,.006-.26.357-.076,8.93,0,1.356h.009v2.012h0l0,1.358v3.753l.064,1.541-.064,0v3.522l.064,4.668-.077,2.11,0,1.4h.009v1.789h0l0,1.405v8.091c0,1.682.309,2.152.959,2.517l.455.262H63.445l-.063-2.249-6.9-.037c-7-.028-7.269-.056-7.551-.305-.315-.278-.315-.278-.315-18.271,0-8.868,0-13.319.032-15.606.033-2.333.088-2.484.3-2.693.329-.329.556-.329,3.334-.329h3.005l1.939,1.953c.467.473,1.6,1.616,3.038,3.063,1.813,1.827,4.07,4.1,6.33,6.382l7.574,7.626v5.6l1.034-1.016v-11.7L73.541-455.5c-1.8-8.166-1.937-8.612-2.942-9.545a5.7,5.7,0,0,0-1.236-.825ZM50.02-458.446h4.674l9.032,9.11,9.031,9.122v7.232l-3.788,3.97c-3.578,3.772-3.783,3.961-4.393,4.037-.637.083-.637.153-.637.34v.557H50.02Zm4.466.5H50.52v33.367H63.439v-.057c0-.645.466-.757,1.074-.836.428-.054.734-.344,4.094-3.886l3.65-3.826v-6.826l-8.887-8.975ZM76.6-451.161h3.823v14.942H76.6Zm3.323.5H77.1v13.942h2.823Zm.817,15.347,4.714,4.947c1.219,1.274,2.379,2.5,3.264,3.449.421.452.751.811.982,1.067.117.13.207.232.267.3.094.111.212.249.1.413l-.028.042-.042.028c-.083.055-.083.055-2.038.064-1.212.005-2.883.008-4.834.008-1.5,0-3.087,0-4.717-.005l-11.98-.04,9.738-10.249Zm8.593,9.8c-.655-.726-2.256-2.436-4.241-4.51l-4.565-4.791-4.144.024-8.793,9.254,10.82.036c1.63,0,3.216.005,4.716.005C86.42-425.493,88.458-425.5,89.335-425.511Zm-24.49,1.444H92.183v4.206H64.845Zm26.838.5H65.345v3.206H91.683Z" fill="#fff"/>
    <path id="Path_44359" data-name="Path 44359" d="M184.767-386.891a1.061,1.061,0,0,0-.294.46c-.077.256.907,1.291,7.732,8.2,4.294,4.345,7.924,7.949,8.064,7.988a.611.611,0,0,0,.831-.409c.1-.371-2.914-14.3-3.208-14.876a3.552,3.552,0,0,0-1.687-1.38A106.485,106.485,0,0,0,184.767-386.891Zm11.349,1.5a1.493,1.493,0,0,1,.537.6c.077.2.665,2.761,1.3,5.674s1.2,5.444,1.24,5.623c.038.217-1.955-1.7-6.083-5.815-3.374-3.374-6.147-6.173-6.147-6.224s1.968-.1,4.384-.1C195.4-385.639,195.745-385.626,196.116-385.4Z" transform="translate(-128.516 -76.774)" fill="#fff"/>
    <path id="Path_44359_-_Outline" data-name="Path 44359 - Outline" d="M190.562-387.3h0c.859,0,5.17.008,5.709.156a3.8,3.8,0,0,1,1.842,1.505c.233.455,1.618,6.85,1.775,7.578.408,1.886.777,3.65,1.039,4.965a10.367,10.367,0,0,1,.413,2.513.839.839,0,0,1-.828.636A1.021,1.021,0,0,1,200.2-370c-.091-.026-.217-.1-2.578-2.441-1.48-1.467-3.466-3.46-5.592-5.611-3.424-3.469-5.363-5.443-6.458-6.6-1.317-1.4-1.409-1.606-1.336-1.849a1.312,1.312,0,0,1,.38-.586c.086-.065.165-.126,2.04-.172C187.7-387.287,189.093-387.3,190.562-387.3Zm10.291,16.611c-.01-.368-.626-3.448-1.477-7.382-.848-3.918-1.581-7.074-1.706-7.339a3.341,3.341,0,0,0-1.527-1.251c-.252-.069-2.247-.139-5.579-.139h0c-3.285,0-5.332.066-5.668.131a.9.9,0,0,0-.168.271c.175.4,2.181,2.45,7.657,8,4.784,4.841,7.655,7.668,7.994,7.935a.511.511,0,0,0,.138.02A.333.333,0,0,0,200.852-370.69Zm-9.5-15.2c4.063,0,4.458.008,4.9.279a1.722,1.722,0,0,1,.639.722l0,.005c.093.249.741,3.1,1.314,5.709.433,1.973.837,3.8,1.054,4.78.107.483.174.786.186.844l0,.009a.265.265,0,0,1-.056.218.26.26,0,0,1-.2.092c-.19,0-.327,0-6.25-5.9-1.745-1.745-3.245-3.252-4.34-4.359-.573-.58-1.019-1.034-1.324-1.348-.557-.574-.557-.574-.557-.694s.054-.24.309-.271c.064-.008.153-.015.272-.022.221-.013.54-.023.949-.033C189.038-385.879,190.141-385.889,191.349-385.889Zm5.07,1.183a1.276,1.276,0,0,0-.43-.475l-.005,0c-.3-.188-.693-.205-4.635-.205-1.884,0-3.211.022-3.861.05.787.816,2.946,2.993,5.8,5.849,1.157,1.153,4.3,4.283,5.518,5.39l-.041-.187c-.217-.981-.621-2.808-1.054-4.781C197.036-382.15,196.49-384.506,196.419-384.706Z" transform="translate(-128.516 -76.774)" fill="#fff"/>
    <path id="Path_44360" data-name="Path 44360" d="M190.9-219.808c-.422.23-.626.537-1.125,1.713a19.961,19.961,0,0,1-1.419,2.492,26.045,26.045,0,0,0-1.431,2.441,3.737,3.737,0,0,0-.422,2.237,3.525,3.525,0,0,0,.422,2.2,4.371,4.371,0,0,0,2.237,2.147,5.783,5.783,0,0,0,5.2-.077,4.673,4.673,0,0,0,2.5-5.24,9.722,9.722,0,0,0-1.853-3.745,19.246,19.246,0,0,1-1.431-2.569c-.537-1.3-1.022-1.789-1.815-1.789A2.361,2.361,0,0,0,190.9-219.808Zm1.546,2.454a18.335,18.335,0,0,0,1.393,2.467c1.265,1.866,1.713,2.9,1.713,3.936a3.352,3.352,0,0,1-3.08,3.476,3.973,3.973,0,0,1-4.269-1.84,4.41,4.41,0,0,1-.332-1.3c-.089-1.15.23-2.019,1.431-3.821a27.407,27.407,0,0,0,1.636-2.85,4.529,4.529,0,0,1,.78-1.3A4.159,4.159,0,0,1,192.443-217.354Z" transform="translate(-130.287 -222.476)" fill="#fff"/>
    <path id="Path_44360_-_Outline" data-name="Path 44360 - Outline" d="M191.76-220.25h.005c1.034,0,1.565.777,2.046,1.944a18.867,18.867,0,0,0,1.41,2.528,9.977,9.977,0,0,1,1.888,3.83,4.993,4.993,0,0,1-.361,3.22,4.98,4.98,0,0,1-2.276,2.294,6.305,6.305,0,0,1-2.82.684,5.927,5.927,0,0,1-2.6-.606,4.593,4.593,0,0,1-2.352-2.261,3.742,3.742,0,0,1-.448-2.309,3.94,3.94,0,0,1,.446-2.344,26.551,26.551,0,0,1,1.448-2.47,19.594,19.594,0,0,0,1.4-2.451c.489-1.153.723-1.556,1.236-1.836a2.572,2.572,0,0,1,.978-.222Zm-.107,14a5.808,5.808,0,0,0,2.6-.631,4.41,4.41,0,0,0,2.371-4.964A9.5,9.5,0,0,0,194.8-215.5a19.685,19.685,0,0,1-1.455-2.614c-.56-1.36-1-1.63-1.577-1.632a2.186,2.186,0,0,0-.75.159c-.347.189-.521.421-1.019,1.593a20.12,20.12,0,0,1-1.44,2.532,25.6,25.6,0,0,0-1.413,2.409,3.52,3.52,0,0,0-.4,2.132,3.292,3.292,0,0,0,.4,2.086,4.133,4.133,0,0,0,2.119,2.033A5.434,5.434,0,0,0,191.653-206.25Zm.062-12.594c.142,0,.3,0,.955,1.383l0,.005a17.97,17.97,0,0,0,1.37,2.426c1.3,1.914,1.757,2.98,1.757,4.079a3.608,3.608,0,0,1-.86,2.474,4.11,4.11,0,0,1-2.426,1.248,4.82,4.82,0,0,1-.851.076,4.073,4.073,0,0,1-3.685-2.05,4.67,4.67,0,0,1-.358-1.394c-.095-1.218.249-2.147,1.472-3.982a27.1,27.1,0,0,0,1.618-2.818C191.406-218.844,191.577-218.844,191.714-218.844Zm.5,1.594a10.444,10.444,0,0,0-.5-.959,10.81,10.81,0,0,0-.553,1.027,27.706,27.706,0,0,1-1.653,2.88c-1.164,1.745-1.475,2.567-1.39,3.663a4.222,4.222,0,0,0,.307,1.211,3.572,3.572,0,0,0,3.238,1.774,4.321,4.321,0,0,0,.763-.068,3.115,3.115,0,0,0,2.874-3.23c0-.985-.437-1.978-1.669-3.8A18.574,18.574,0,0,1,192.215-217.25Z" transform="translate(-130.287 -222.476)" fill="#fff"/>
    <g id="Group_12192" data-name="Group 12192">
      <g id="Group_12191" data-name="Group 12191" transform="translate(40.747 -431.657)">
        <rect id="Rectangle_4173" data-name="Rectangle 4173" width="4.825" height="3.01" fill="#fff"/>
      </g>
      <g id="Group_12190" data-name="Group 12190" transform="translate(40.747 -438.667)">
        <rect id="Rectangle_4172" data-name="Rectangle 4172" width="4.825" height="3.01" fill="#fff"/>
      </g>
      <g id="Group_12189" data-name="Group 12189" transform="translate(40.747 -445.677)">
        <rect id="Rectangle_4171" data-name="Rectangle 4171" width="4.825" height="3.01" fill="#fff"/>
      </g>
      <rect id="Rectangle_4643" data-name="Rectangle 4643" width="4.825" height="3.01" transform="translate(40.747 -452.688)" fill="#fff"/>
    </g>
  </g>
</svg>