<svg xmlns="http://www.w3.org/2000/svg" id="Group_103" data-name="Group 103" width="13.173" height="13.174" viewBox="0 0 13.173 13.174" class="svg replaced-svg">
  <path id="Path_399" data-name="Path 399" d="M1396.467,7479.556h0v-4.831c0-2.364-.509-4.185-3.272-4.185a2.867,2.867,0,0,0-2.583,1.42h-.039v-1.2h-2.619v8.794h2.727V7475.2c0-1.146.217-2.255,1.637-2.255,1.4,0,1.42,1.309,1.42,2.329v4.282Z" transform="translate(-1383.297 -7466.383)" fill="#fff"/>
  <path id="Path_400" data-name="Path 400" d="M1381.887,7470.842h2.731v8.794h-2.731Z" transform="translate(-1381.67 -7466.463)" fill="#fff"/>
  <path id="Path_401" data-name="Path 401" d="M1383.171,7464.859a1.59,1.59,0,1,0,1.582,1.582A1.582,1.582,0,0,0,1383.171,7464.859Z" transform="translate(-1381.59 -7464.859)" fill="#fff"/>
</svg>