<svg xmlns="http://www.w3.org/2000/svg" width="55.542" height="37.91" viewBox="0 0 55.542 37.91" class="svg replaced-svg">
  <g id="reshot-icon-charging-battery-VT59D26PYU" transform="translate(-3.5 -43.029)">
    <path id="Path_44193" data-name="Path 44193" d="M23.271,43.029l10.092.417.734.69L30.445,56.66V57.9l1.229.2,1.689-.2,6.186.2.363.72-.363.661L25.561,80l-.916.418h-1l-.584-.711-.207-1.184.436-2.166,3.131-10.47V64.772l-.859.243H18.115l-.781-.508-.18-1.04Z" fill="#fff" opacity="0"/>
    <path id="Path_41239" data-name="Path 41239" d="M160.354,107.96H149.392a.558.558,0,0,1,0-1.115h10.4V95.277a.558.558,0,0,1,1.115,0V107.4A.558.558,0,0,1,160.354,107.96Zm0-14.356a.558.558,0,0,1-.558-.558v-.669a.558.558,0,0,1,1.115,0v.669A.558.558,0,0,1,160.354,93.6Z" transform="translate(-112.916 -37.908)" fill="#fff" opacity="0"/>
    <path id="Path_41240" data-name="Path 41240" d="M104.808,80.8a.558.558,0,0,1-.148-.775c1.922-2.832,1.544-2.274,7.8-11.488h-4.216a3.574,3.574,0,0,1-3.431-4.556l3.039-10.552a.558.558,0,1,1,1.072.308l-3.039,10.551a2.458,2.458,0,0,0,2.359,3.134h5.27a.558.558,0,0,1,.461.871c-6.812,10.025-6.635,9.765-8.4,12.358A.557.557,0,0,1,104.808,80.8Z" transform="translate(-77.26 -7.769)" fill="#fff"/>
    <path id="Path_41242" data-name="Path 41242" d="M56.851,55.578H53.572V51.124a2.792,2.792,0,0,0-2.788-2.788H40.13a.558.558,0,0,0,0,1.115H50.784a1.679,1.679,0,0,1,1.673,1.673V72.841a1.679,1.679,0,0,1-1.673,1.673H29.913l1.515-2.231H49.668a.557.557,0,0,0,.558-.558V52.239a.558.558,0,0,0-.558-.558H32.343l.642-2.231H45.669a.558.558,0,0,0,0-1.115H33.306l1.036-3.6a1.342,1.342,0,0,0-1.287-1.709H23.841a1.328,1.328,0,0,0-1.285.966l-1.269,4.341h-15A2.791,2.791,0,0,0,3.5,51.124V72.841a2.791,2.791,0,0,0,2.788,2.788H23.144L22.4,78.216A2.122,2.122,0,0,0,26.189,80l2.966-4.367H50.784a2.792,2.792,0,0,0,2.788-2.788V68.388h3.279a2.194,2.194,0,0,0,2.19-2.19V57.769A2.195,2.195,0,0,0,56.851,55.578ZM6.288,74.514a1.675,1.675,0,0,1-1.673-1.673V51.124a1.675,1.675,0,0,1,1.673-1.673H20.961l-.652,2.231H7.4a.559.559,0,0,0-.558.558V71.726a.556.556,0,0,0,.558.558H21.744a.558.558,0,0,0,0-1.115H7.961V52.8H19.983L16.794,63.709a1.344,1.344,0,0,0,1.287,1.715H25.8a.226.226,0,0,1,.216.288l-1.579,5.456H19.205a.558.558,0,0,0,0,1.115h4.906l-.645,2.231H6.288ZM25.266,79.37a1.006,1.006,0,0,1-1.8-.843L27.084,66.02A1.342,1.342,0,0,0,25.8,64.309H18.081a.226.226,0,0,1-.216-.286l5.762-19.718a.226.226,0,0,1,.214-.161h9.215a.225.225,0,0,1,.214.29L29.7,56.832a1.342,1.342,0,0,0,1.287,1.708h8a.225.225,0,0,1,.185.352l-3.761,5.534a.559.559,0,0,0,.149.774.569.569,0,0,0,.774-.147L40.1,59.518a1.343,1.343,0,0,0-1.109-2.093h-8a.224.224,0,0,1-.216-.285L32.022,52.8H49.111V71.168H32.185l5.647-8.425a.557.557,0,0,0-.147-.774.573.573,0,0,0-.774.147C36.049,63.383,26.121,78.11,25.266,79.37ZM57.926,66.2a1.08,1.08,0,0,1-1.075,1.075H53.572V56.693h3.279a1.08,1.08,0,0,1,1.075,1.075Z" transform="translate(0)" fill="#fff"/>
  </g>
</svg>