<svg xmlns="http://www.w3.org/2000/svg" width="20.406" height="21.698" viewBox="0 0 20.406 21.698" class="svg replaced-svg">
  <g id="fuel-line" transform="translate(-3 -2.068)">
    <path id="Path_109" data-name="Path 109" d="M14.633,23.765H4.97A1.909,1.909,0,0,1,3,21.856V3.965a1.97,1.97,0,0,1,2.038-1.9H14.7a1.848,1.848,0,0,1,1.889,1.9V21.856a1.916,1.916,0,0,1-1.957,1.909ZM4.97,3.381a.591.591,0,0,0-.612.584V21.856a.591.591,0,0,0,.591.591h9.683a.639.639,0,0,0,.646-.591V3.965a.639.639,0,0,0-.646-.584Z" transform="translate(0 0)" fill="#129048"/>
    <path id="Path_110" data-name="Path 110" d="M26.979,25.346a2.378,2.378,0,0,1-2.4-2.378v-5.1a1.359,1.359,0,0,0-1.359-1.359h-.972a.679.679,0,1,1,0-1.359h.972a2.718,2.718,0,0,1,2.718,2.718v5.1a1.019,1.019,0,0,0,2.038,0V14L25.851,9.242a1.556,1.556,0,0,0-1.407-.883h-.5a.679.679,0,0,1,0-1.359h.5a2.922,2.922,0,0,1,2.67,1.733L29.3,13.6a.679.679,0,0,1,.061.279v9.091a2.378,2.378,0,0,1-2.378,2.378Z" transform="translate(-5.952 -1.581)" fill="#129048"/>
    <path id="Path_111" data-name="Path 111" d="M14.474,8.359H7.679A.679.679,0,1,1,7.679,7h6.795a.679.679,0,1,1,0,1.359Z" transform="translate(-1.282 -1.581)" fill="#e8c113"/>
    <path id="Path_112" data-name="Path 112" d="M14.474,12.359H7.679a.679.679,0,1,1,0-1.359h6.795a.679.679,0,1,1,0,1.359Z" transform="translate(-1.282 -2.863)" fill="#e8c113"/>
    <path id="Path_113" data-name="Path 113" d="M24.679,9.516A.679.679,0,0,1,24,8.836V4.759a.679.679,0,0,1,1.359,0V8.836A.679.679,0,0,1,24.679,9.516Z" transform="translate(-6.731 -0.645)" fill="#129048"/>
  </g>
</svg>