<svg xmlns="http://www.w3.org/2000/svg" width="14" height="14" viewBox="0 0 14 14" fill="none" class="svg replaced-svg">
<path d="M9.05437 1.23474H4.11562C3.3518 1.23556 2.61949 1.53935 2.07939 2.07945C1.53929 2.61955 1.2355 3.35186 1.23468 4.11568V9.05443C1.2355 9.81825 1.53929 10.5506 2.07939 11.0907C2.61949 11.6308 3.3518 11.9345 4.11562 11.9354H9.05437C9.81819 11.9345 10.5505 11.6308 11.0906 11.0907C11.6307 10.5506 11.9345 9.81825 11.9353 9.05443V4.11568C11.9345 3.35186 11.6307 2.61955 11.0906 2.07945C10.5505 1.53935 9.81819 1.23556 9.05437 1.23474ZM6.58499 9.05443C6.0966 9.05443 5.61917 8.9096 5.21308 8.63826C4.80699 8.36693 4.49049 7.98126 4.30359 7.53004C4.11669 7.07882 4.06778 6.58231 4.16307 6.1033C4.25835 5.62429 4.49353 5.18429 4.83888 4.83894C5.18423 4.49359 5.62423 4.25841 6.10324 4.16313C6.58225 4.06785 7.07876 4.11675 7.52998 4.30365C7.9812 4.49055 8.36686 4.80706 8.6382 5.21314C8.90954 5.61923 9.05437 6.09666 9.05437 6.58505C9.05369 7.23976 8.7933 7.86746 8.33035 8.33041C7.8674 8.79336 7.2397 9.05375 6.58499 9.05443ZM9.67171 4.11568C9.54961 4.11568 9.43026 4.07947 9.32873 4.01164C9.22721 3.9438 9.14809 3.84739 9.10136 3.73458C9.05464 3.62178 9.04241 3.49765 9.06623 3.3779C9.09005 3.25814 9.14885 3.14814 9.23518 3.06181C9.32152 2.97547 9.43152 2.91667 9.55127 2.89285C9.67103 2.86903 9.79515 2.88126 9.90796 2.92798C10.0208 2.97471 10.1172 3.05384 10.185 3.15536C10.2528 3.25688 10.2891 3.37624 10.2891 3.49833C10.2891 3.66206 10.224 3.81909 10.1082 3.93486C9.99246 4.05064 9.83544 4.11568 9.67171 4.11568ZM8.23124 6.58505C8.23124 6.91065 8.13469 7.22894 7.9538 7.49966C7.77291 7.77039 7.5158 7.98139 7.21499 8.10599C6.91417 8.23059 6.58317 8.26319 6.26383 8.19967C5.94448 8.13615 5.65115 7.97936 5.42092 7.74913C5.19069 7.5189 5.0339 7.22556 4.97037 6.90622C4.90685 6.58688 4.93946 6.25587 5.06406 5.95506C5.18866 5.65425 5.39966 5.39714 5.67039 5.21625C5.94111 5.03535 6.2594 4.9388 6.58499 4.9388C7.02161 4.9388 7.44034 5.11225 7.74907 5.42098C8.0578 5.72971 8.23124 6.14844 8.23124 6.58505Z" fill="white"/>
</svg>